<svg xmlns="http://www.w3.org/2000/svg" xmlns:xlink="http://www.w3.org/1999/xlink" contentStyleType="text/css" data-diagram-type="CLASS" height="798px" preserveAspectRatio="none" style="width:1898px;height:798px;background:#FFFFFF;" version="1.1" viewBox="0 0 1898 798" width="1898px" zoomAndPan="magnify"><title>Diagramme du Pattern Abstract Factory</title><defs/><g><g class="title" data-source-line="2"><text fill="#000000" font-family="sans-serif" font-size="28" font-weight="bold" lengthAdjust="spacing" textLength="571.3613" x="649.3875" y="47.0703">Diagramme du Pattern Abstract Factory</text></g><!--class AbstractProductA--><g class="entity" data-entity="AbstractProductA" data-source-line="4" data-uid="ent0002" id="entity_AbstractProductA"><rect fill="#F1F1F1" height="96" rx="7" ry="7" style="stroke:#181818;stroke-width:1;" width="300.6875" x="982.4" y="405.8966"/><ellipse cx="1012.4" cy="437.8966" fill="#B4A7E5" rx="22" ry="22" style="stroke:#181818;stroke-width:2;"/><path d="M1004.2555,429.4268 L1004.2555,425.1104 L1019.0143,425.1104 L1019.0143,429.4268 L1014.0836,429.4268 L1014.0836,445.5802 L1019.0143,445.5802 L1019.0143,449.8966 L1004.2555,449.8966 L1004.2555,445.5802 L1009.1861,445.5802 L1009.1861,429.4268 Z " fill="#000000"/><text fill="#000000" font-family="sans-serif" font-size="28" font-style="italic" lengthAdjust="spacing" textLength="236.6875" x="1040.4" y="448.4786">AbstractProductA</text><line style="stroke:#181818;stroke-width:1;" x1="984.4" x2="1281.0875" y1="469.8966" y2="469.8966"/><line style="stroke:#181818;stroke-width:1;" x1="984.4" x2="1281.0875" y1="485.8966" y2="485.8966"/></g><!--class ConcreteProductA1--><g class="entity" data-entity="ConcreteProductA1" data-source-line="5" data-uid="ent0003" id="entity_ConcreteProductA1"><rect fill="#F1F1F1" height="96" rx="7" ry="7" style="stroke:#181818;stroke-width:1;" width="326.3906" x="1403.54" y="688.8766"/><ellipse cx="1433.54" cy="720.8766" fill="#ADD1B2" rx="22" ry="22" style="stroke:#181818;stroke-width:2;"/><path d="M1439.4863,732.1627 Q1438.3242,732.7604 1437.0459,733.0592 Q1435.7675,733.358 1434.3564,733.358 Q1429.3427,733.358 1426.7031,730.0543 Q1424.0634,726.7506 1424.0634,720.5084 Q1424.0634,714.2496 1426.7031,710.9459 Q1429.3427,707.6422 1434.3564,707.6422 Q1435.7675,707.6422 1437.0625,707.941 Q1438.3574,708.2398 1439.4863,708.8375 L1439.4863,714.2828 Q1438.2246,713.1207 1437.0376,712.5812 Q1435.8505,712.0416 1434.5888,712.0416 Q1431.8994,712.0416 1430.5297,714.1749 Q1429.1601,716.3082 1429.1601,720.5084 Q1429.1601,724.692 1430.5297,726.8253 Q1431.8994,728.9586 1434.5888,728.9586 Q1435.8505,728.9586 1437.0376,728.419 Q1438.2246,727.8795 1439.4863,726.7174 Z " fill="#000000"/><text fill="#000000" font-family="sans-serif" font-size="28" lengthAdjust="spacing" textLength="262.3906" x="1461.54" y="731.4586">ConcreteProductA1</text><line style="stroke:#181818;stroke-width:1;" x1="1405.54" x2="1727.9306" y1="752.8766" y2="752.8766"/><line style="stroke:#181818;stroke-width:1;" x1="1405.54" x2="1727.9306" y1="768.8766" y2="768.8766"/></g><!--class ConcreteProductA2--><g class="entity" data-entity="ConcreteProductA2" data-source-line="6" data-uid="ent0005" id="entity_ConcreteProductA2"><rect fill="#F1F1F1" height="96" rx="7" ry="7" style="stroke:#181818;stroke-width:1;" width="326.3906" x="955.54" y="688.8766"/><ellipse cx="985.54" cy="720.8766" fill="#ADD1B2" rx="22" ry="22" style="stroke:#181818;stroke-width:2;"/><path d="M991.4863,732.1627 Q990.3242,732.7604 989.0459,733.0592 Q987.7675,733.358 986.3564,733.358 Q981.3427,733.358 978.7031,730.0543 Q976.0634,726.7506 976.0634,720.5084 Q976.0634,714.2496 978.7031,710.9459 Q981.3427,707.6422 986.3564,707.6422 Q987.7675,707.6422 989.0625,707.941 Q990.3574,708.2398 991.4863,708.8375 L991.4863,714.2828 Q990.2246,713.1207 989.0376,712.5812 Q987.8505,712.0416 986.5888,712.0416 Q983.8994,712.0416 982.5297,714.1749 Q981.1601,716.3082 981.1601,720.5084 Q981.1601,724.692 982.5297,726.8253 Q983.8994,728.9586 986.5888,728.9586 Q987.8505,728.9586 989.0376,728.419 Q990.2246,727.8795 991.4863,726.7174 Z " fill="#000000"/><text fill="#000000" font-family="sans-serif" font-size="28" lengthAdjust="spacing" textLength="262.3906" x="1013.54" y="731.4586">ConcreteProductA2</text><line style="stroke:#181818;stroke-width:1;" x1="957.54" x2="1279.9306" y1="752.8766" y2="752.8766"/><line style="stroke:#181818;stroke-width:1;" x1="957.54" x2="1279.9306" y1="768.8766" y2="768.8766"/></g><!--class AbstractProductB--><g class="entity" data-entity="AbstractProductB" data-source-line="8" data-uid="ent0007" id="entity_AbstractProductB"><rect fill="#F1F1F1" height="96" rx="7" ry="7" style="stroke:#181818;stroke-width:1;" width="297.4746" x="14" y="405.8966"/><ellipse cx="44" cy="437.8966" fill="#B4A7E5" rx="22" ry="22" style="stroke:#181818;stroke-width:2;"/><path d="M35.8555,429.4268 L35.8555,425.1104 L50.6143,425.1104 L50.6143,429.4268 L45.6836,429.4268 L45.6836,445.5802 L50.6143,445.5802 L50.6143,449.8966 L35.8555,449.8966 L35.8555,445.5802 L40.7861,445.5802 L40.7861,429.4268 Z " fill="#000000"/><text fill="#000000" font-family="sans-serif" font-size="28" font-style="italic" lengthAdjust="spacing" textLength="233.4746" x="72" y="448.4786">AbstractProductB</text><line style="stroke:#181818;stroke-width:1;" x1="16" x2="309.4746" y1="469.8966" y2="469.8966"/><line style="stroke:#181818;stroke-width:1;" x1="16" x2="309.4746" y1="485.8966" y2="485.8966"/></g><!--class ConcreteProductB1--><g class="entity" data-entity="ConcreteProductB1" data-source-line="9" data-uid="ent0008" id="entity_ConcreteProductB1"><rect fill="#F1F1F1" height="96" rx="7" ry="7" style="stroke:#181818;stroke-width:1;" width="323.1777" x="549.14" y="688.8766"/><ellipse cx="579.14" cy="720.8766" fill="#ADD1B2" rx="22" ry="22" style="stroke:#181818;stroke-width:2;"/><path d="M585.0863,732.1627 Q583.9242,732.7604 582.6459,733.0592 Q581.3675,733.358 579.9564,733.358 Q574.9427,733.358 572.3031,730.0543 Q569.6634,726.7506 569.6634,720.5084 Q569.6634,714.2496 572.3031,710.9459 Q574.9427,707.6422 579.9564,707.6422 Q581.3675,707.6422 582.6625,707.941 Q583.9574,708.2398 585.0863,708.8375 L585.0863,714.2828 Q583.8246,713.1207 582.6376,712.5812 Q581.4505,712.0416 580.1888,712.0416 Q577.4994,712.0416 576.1297,714.1749 Q574.7601,716.3082 574.7601,720.5084 Q574.7601,724.692 576.1297,726.8253 Q577.4994,728.9586 580.1888,728.9586 Q581.4505,728.9586 582.6376,728.419 Q583.8246,727.8795 585.0863,726.7174 Z " fill="#000000"/><text fill="#000000" font-family="sans-serif" font-size="28" lengthAdjust="spacing" textLength="259.1777" x="607.14" y="731.4586">ConcreteProductB1</text><line style="stroke:#181818;stroke-width:1;" x1="551.14" x2="870.3177" y1="752.8766" y2="752.8766"/><line style="stroke:#181818;stroke-width:1;" x1="551.14" x2="870.3177" y1="768.8766" y2="768.8766"/></g><!--class ConcreteProductB2--><g class="entity" data-entity="ConcreteProductB2" data-source-line="10" data-uid="ent0010" id="entity_ConcreteProductB2"><rect fill="#F1F1F1" height="96" rx="7" ry="7" style="stroke:#181818;stroke-width:1;" width="323.1777" x="129.14" y="688.8766"/><ellipse cx="159.14" cy="720.8766" fill="#ADD1B2" rx="22" ry="22" style="stroke:#181818;stroke-width:2;"/><path d="M165.0863,732.1627 Q163.9242,732.7604 162.6459,733.0592 Q161.3675,733.358 159.9564,733.358 Q154.9427,733.358 152.3031,730.0543 Q149.6634,726.7506 149.6634,720.5084 Q149.6634,714.2496 152.3031,710.9459 Q154.9427,707.6422 159.9564,707.6422 Q161.3675,707.6422 162.6625,707.941 Q163.9574,708.2398 165.0863,708.8375 L165.0863,714.2828 Q163.8246,713.1207 162.6376,712.5812 Q161.4505,712.0416 160.1888,712.0416 Q157.4994,712.0416 156.1297,714.1749 Q154.7601,716.3082 154.7601,720.5084 Q154.7601,724.692 156.1297,726.8253 Q157.4994,728.9586 160.1888,728.9586 Q161.4505,728.9586 162.6376,728.419 Q163.8246,727.8795 165.0863,726.7174 Z " fill="#000000"/><text fill="#000000" font-family="sans-serif" font-size="28" lengthAdjust="spacing" textLength="259.1777" x="187.14" y="731.4586">ConcreteProductB2</text><line style="stroke:#181818;stroke-width:1;" x1="131.14" x2="450.3177" y1="752.8766" y2="752.8766"/><line style="stroke:#181818;stroke-width:1;" x1="131.14" x2="450.3177" y1="768.8766" y2="768.8766"/></g><!--class AbstractFactory--><g class="entity" data-entity="AbstractFactory" data-source-line="12" data-uid="ent0012" id="entity_AbstractFactory"><rect fill="#F1F1F1" height="161.9531" rx="7" ry="7" style="stroke:#181818;stroke-width:1;" width="530.8164" x="721.32" y="88.9766"/><ellipse cx="872.2302" cy="120.9766" fill="#B4A7E5" rx="22" ry="22" style="stroke:#181818;stroke-width:2;"/><path d="M864.0856,112.5068 L864.0856,108.1904 L878.8444,108.1904 L878.8444,112.5068 L873.9138,112.5068 L873.9138,128.6602 L878.8444,128.6602 L878.8444,132.9766 L864.0856,132.9766 L864.0856,128.6602 L869.0163,128.6602 L869.0163,112.5068 Z " fill="#000000"/><text fill="#000000" font-family="sans-serif" font-size="28" font-style="italic" lengthAdjust="spacing" textLength="211.9961" x="913.2302" y="131.5586">AbstractFactory</text><line style="stroke:#181818;stroke-width:1;" x1="723.32" x2="1250.1364" y1="152.9766" y2="152.9766"/><line style="stroke:#181818;stroke-width:1;" x1="723.32" x2="1250.1364" y1="168.9766" y2="168.9766"/><ellipse cx="743.32" cy="196.4648" fill="#84BE84" rx="6" ry="6" style="stroke:#038048;stroke-width:2;"/><text fill="#000000" font-family="sans-serif" font-size="28" lengthAdjust="spacing" textLength="478.8164" x="761.32" y="204.0469">createProductA(): AbstractProductA</text><ellipse cx="743.32" cy="229.4414" fill="#84BE84" rx="6" ry="6" style="stroke:#038048;stroke-width:2;"/><text fill="#000000" font-family="sans-serif" font-size="28" lengthAdjust="spacing" textLength="472.3906" x="761.32" y="237.0234">createProductB(): AbstractProductB</text></g><!--class ConcreteFactory1--><g class="entity" data-entity="ConcreteFactory1" data-source-line="18" data-uid="ent0013" id="entity_ConcreteFactory1"><rect fill="#F1F1F1" height="161.9531" rx="7" ry="7" style="stroke:#181818;stroke-width:1;" width="530.8164" x="1353.32" y="372.9166"/><ellipse cx="1491.3786" cy="404.9166" fill="#ADD1B2" rx="22" ry="22" style="stroke:#181818;stroke-width:2;"/><path d="M1497.3249,416.2027 Q1496.1628,416.8004 1494.8845,417.0992 Q1493.6061,417.398 1492.195,417.398 Q1487.1813,417.398 1484.5417,414.0943 Q1481.902,410.7906 1481.902,404.5484 Q1481.902,398.2896 1484.5417,394.9859 Q1487.1813,391.6822 1492.195,391.6822 Q1493.6061,391.6822 1494.9011,391.981 Q1496.196,392.2798 1497.3249,392.8775 L1497.3249,398.3228 Q1496.0632,397.1607 1494.8762,396.6212 Q1493.6891,396.0816 1492.4274,396.0816 Q1489.738,396.0816 1488.3683,398.2149 Q1486.9987,400.3482 1486.9987,404.5484 Q1486.9987,408.732 1488.3683,410.8653 Q1489.738,412.9986 1492.4274,412.9986 Q1493.6891,412.9986 1494.8762,412.459 Q1496.0632,411.9195 1497.3249,410.7574 Z " fill="#000000"/><text fill="#000000" font-family="sans-serif" font-size="28" lengthAdjust="spacing" textLength="237.6992" x="1532.3786" y="415.4986">ConcreteFactory1</text><line style="stroke:#181818;stroke-width:1;" x1="1355.32" x2="1882.1364" y1="436.9166" y2="436.9166"/><line style="stroke:#181818;stroke-width:1;" x1="1355.32" x2="1882.1364" y1="452.9166" y2="452.9166"/><ellipse cx="1375.32" cy="480.4048" fill="#84BE84" rx="6" ry="6" style="stroke:#038048;stroke-width:2;"/><text fill="#000000" font-family="sans-serif" font-size="28" lengthAdjust="spacing" textLength="478.8164" x="1393.32" y="487.9869">createProductA(): AbstractProductA</text><ellipse cx="1375.32" cy="513.3814" fill="#84BE84" rx="6" ry="6" style="stroke:#038048;stroke-width:2;"/><text fill="#000000" font-family="sans-serif" font-size="28" lengthAdjust="spacing" textLength="472.3906" x="1393.32" y="520.9634">createProductB(): AbstractProductB</text></g><!--class ConcreteFactory2--><g class="entity" data-entity="ConcreteFactory2" data-source-line="23" data-uid="ent0015" id="entity_ConcreteFactory2"><rect fill="#F1F1F1" height="161.9531" rx="7" ry="7" style="stroke:#181818;stroke-width:1;" width="530.8164" x="381.32" y="372.9166"/><ellipse cx="519.3786" cy="404.9166" fill="#ADD1B2" rx="22" ry="22" style="stroke:#181818;stroke-width:2;"/><path d="M525.3249,416.2027 Q524.1628,416.8004 522.8845,417.0992 Q521.6061,417.398 520.195,417.398 Q515.1813,417.398 512.5417,414.0943 Q509.902,410.7906 509.902,404.5484 Q509.902,398.2896 512.5417,394.9859 Q515.1813,391.6822 520.195,391.6822 Q521.6061,391.6822 522.9011,391.981 Q524.196,392.2798 525.3249,392.8775 L525.3249,398.3228 Q524.0632,397.1607 522.8762,396.6212 Q521.6891,396.0816 520.4274,396.0816 Q517.738,396.0816 516.3683,398.2149 Q514.9987,400.3482 514.9987,404.5484 Q514.9987,408.732 516.3683,410.8653 Q517.738,412.9986 520.4274,412.9986 Q521.6891,412.9986 522.8762,412.459 Q524.0632,411.9195 525.3249,410.7574 Z " fill="#000000"/><text fill="#000000" font-family="sans-serif" font-size="28" lengthAdjust="spacing" textLength="237.6992" x="560.3786" y="415.4986">ConcreteFactory2</text><line style="stroke:#181818;stroke-width:1;" x1="383.32" x2="910.1364" y1="436.9166" y2="436.9166"/><line style="stroke:#181818;stroke-width:1;" x1="383.32" x2="910.1364" y1="452.9166" y2="452.9166"/><ellipse cx="403.32" cy="480.4048" fill="#84BE84" rx="6" ry="6" style="stroke:#038048;stroke-width:2;"/><text fill="#000000" font-family="sans-serif" font-size="28" lengthAdjust="spacing" textLength="478.8164" x="421.32" y="487.9869">createProductA(): AbstractProductA</text><ellipse cx="403.32" cy="513.3814" fill="#84BE84" rx="6" ry="6" style="stroke:#038048;stroke-width:2;"/><text fill="#000000" font-family="sans-serif" font-size="28" lengthAdjust="spacing" textLength="472.3906" x="421.32" y="520.9634">createProductB(): AbstractProductB</text></g><!--class Client--><g class="entity" data-entity="Client" data-source-line="33" data-uid="ent0021" id="entity_Client"><rect fill="#F1F1F1" height="96" rx="7" ry="7" style="stroke:#181818;stroke-width:1;" width="143.0098" x="509.24" y="121.9566"/><ellipse cx="539.24" cy="153.9566" fill="#ADD1B2" rx="22" ry="22" style="stroke:#181818;stroke-width:2;"/><path d="M545.1863,165.2427 Q544.0242,165.8404 542.7459,166.1392 Q541.4675,166.438 540.0564,166.438 Q535.0427,166.438 532.4031,163.1343 Q529.7634,159.8306 529.7634,153.5884 Q529.7634,147.3296 532.4031,144.0259 Q535.0427,140.7222 540.0564,140.7222 Q541.4675,140.7222 542.7625,141.021 Q544.0574,141.3198 545.1863,141.9175 L545.1863,147.3628 Q543.9246,146.2007 542.7376,145.6612 Q541.5505,145.1216 540.2888,145.1216 Q537.5994,145.1216 536.2297,147.2549 Q534.8601,149.3882 534.8601,153.5884 Q534.8601,157.772 536.2297,159.9053 Q537.5994,162.0386 540.2888,162.0386 Q541.5505,162.0386 542.7376,161.499 Q543.9246,160.9595 545.1863,159.7974 Z " fill="#000000"/><text fill="#000000" font-family="sans-serif" font-size="28" lengthAdjust="spacing" textLength="79.0098" x="567.24" y="164.5386">Client</text><line style="stroke:#181818;stroke-width:1;" x1="511.24" x2="650.2498" y1="185.9566" y2="185.9566"/><line style="stroke:#181818;stroke-width:1;" x1="511.24" x2="650.2498" y1="201.9566" y2="201.9566"/></g><!--reverse link AbstractProductA to ConcreteProductA1--><g class="link" data-entity-1="AbstractProductA" data-entity-2="ConcreteProductA1" data-source-line="5" data-uid="lnk4" id="link_AbstractProductA_ConcreteProductA1"><path d="M1243.6965,521.0731 C1288.2365,547.5131 1313.52,563.1566 1362.74,594.8766 C1409.68,625.1366 1461.54,660.7566 1501.24,688.4966" fill="none" id="AbstractProductA-backto-ConcreteProductA1" style="stroke:#454645;stroke-width:2;stroke-dasharray:14,14;"/><polygon fill="none" points="1212.74,502.6966,1237.571,531.3919,1249.822,510.7542,1212.74,502.6966" style="stroke:#454645;stroke-width:2;"/></g><!--reverse link AbstractProductA to ConcreteProductA2--><g class="link" data-entity-1="AbstractProductA" data-entity-2="ConcreteProductA2" data-source-line="6" data-uid="lnk6" id="link_AbstractProductA_ConcreteProductA2"><path d="M1128.5848,538.5508 C1125.9848,590.0508 1123.68,636.4766 1121.08,688.0366" fill="none" id="AbstractProductA-backto-ConcreteProductA2" style="stroke:#454645;stroke-width:2;stroke-dasharray:14,14;"/><polygon fill="none" points="1130.4,502.5966,1116.6001,537.9457,1140.5696,539.1558,1130.4,502.5966" style="stroke:#454645;stroke-width:2;"/></g><!--reverse link AbstractProductB to ConcreteProductB1--><g class="link" data-entity-1="AbstractProductB" data-entity-2="ConcreteProductB1" data-source-line="9" data-uid="lnk9" id="link_AbstractProductB_ConcreteProductB1"><path d="M299.181,516.6701 C325.281,527.8301 320.32,525.1566 346.74,534.8766 C431.44,566.0566 461.3,552.0566 540.74,594.8766 C586.84,619.7366 632.28,658.0766 664.58,688.3566" fill="none" id="AbstractProductB-backto-ConcreteProductB1" style="stroke:#454645;stroke-width:2;stroke-dasharray:14,14;"/><polygon fill="none" points="266.08,502.5166,294.4632,527.7038,303.8989,505.6364,266.08,502.5166" style="stroke:#454645;stroke-width:2;"/></g><!--reverse link AbstractProductB to ConcreteProductB2--><g class="link" data-entity-1="AbstractProductB" data-entity-2="ConcreteProductB2" data-source-line="10" data-uid="lnk11" id="link_AbstractProductB_ConcreteProductB2"><path d="M199.1679,535.3191 C222.7879,586.8191 245.58,636.4766 269.24,688.0366" fill="none" id="AbstractProductB-backto-ConcreteProductB2" style="stroke:#454645;stroke-width:2;stroke-dasharray:14,14;"/><polygon fill="none" points="184.16,502.5966,188.2604,540.3217,210.0754,530.3165,184.16,502.5966" style="stroke:#454645;stroke-width:2;"/></g><!--reverse link AbstractFactory to ConcreteFactory1--><g class="link" data-entity-1="AbstractFactory" data-entity-2="ConcreteFactory1" data-source-line="19" data-uid="lnk14" id="link_AbstractFactory_ConcreteFactory1"><path d="M1199.9141,266.3795 C1284.9141,304.0395 1353.2,334.2766 1438.24,371.9366" fill="none" id="AbstractFactory-backto-ConcreteFactory1" style="stroke:#454645;stroke-width:2;stroke-dasharray:14,14;"/><polygon fill="none" points="1167,251.7966,1195.0532,277.3508,1204.7751,255.4081,1167,251.7966" style="stroke:#454645;stroke-width:2;"/></g><!--reverse link AbstractFactory to ConcreteFactory2--><g class="link" data-entity-1="AbstractFactory" data-entity-2="ConcreteFactory2" data-source-line="24" data-uid="lnk16" id="link_AbstractFactory_ConcreteFactory2"><path d="M862.4326,274.3046 C816.4926,312.1446 789.48,334.3766 743.5,372.2366" fill="none" id="AbstractFactory-backto-ConcreteFactory2" style="stroke:#454645;stroke-width:2;stroke-dasharray:14,14;"/><polygon fill="none" points="890.22,251.4166,854.8033,265.0421,870.0619,283.567,890.22,251.4166" style="stroke:#454645;stroke-width:2;"/></g><!--link ConcreteFactory1 to ConcreteProductA1--><g class="link" data-entity-1="ConcreteFactory1" data-entity-2="ConcreteProductA1" data-source-line="28" data-uid="lnk17" id="link_ConcreteFactory1_ConcreteProductA1"><path codeLine="28" d="M1603.84,535.8366 C1594.66,585.1166 1585.4001,634.78 1577.6601,676.28" fill="none" id="ConcreteFactory1-to-ConcreteProductA1" style="stroke:#454645;stroke-width:2;stroke-dasharray:14,14;"/><polygon fill="#454645" points="1575.46,688.0766,1586.6246,671.8484,1577.2934,678.2461,1570.8958,668.9149,1575.46,688.0766" style="stroke:#454645;stroke-width:2;"/><text fill="#000000" font-family="sans-serif" font-size="26" lengthAdjust="spacing" textLength="52.9268" x="1594.74" y="622.0133">cr&#233;e</text></g><!--link ConcreteFactory1 to ConcreteProductB1--><g class="link" data-entity-1="ConcreteFactory1" data-entity-2="ConcreteProductB1" data-source-line="29" data-uid="lnk18" id="link_ConcreteFactory1_ConcreteProductB1"><path codeLine="29" d="M1358.54,535.8366 C1198.18,585.1166 1009.5906,643.0515 874.5506,684.5515" fill="none" id="ConcreteFactory1-to-ConcreteProductB1" style="stroke:#454645;stroke-width:2;stroke-dasharray:14,14;"/><polygon fill="#454645" points="863.08,688.0766,882.6359,690.436,872.6388,685.139,877.9358,675.1419,863.08,688.0766" style="stroke:#454645;stroke-width:2;"/><text fill="#000000" font-family="sans-serif" font-size="26" lengthAdjust="spacing" textLength="52.9268" x="1166.74" y="622.0133">cr&#233;e</text></g><!--link ConcreteFactory2 to ConcreteProductA2--><g class="link" data-entity-1="ConcreteFactory2" data-entity-2="ConcreteProductA2" data-source-line="30" data-uid="lnk19" id="link_ConcreteFactory2_ConcreteProductA2"><path codeLine="30" d="M782,535.8366 C865.36,585.1166 959.0308,640.4685 1029.2108,681.9685" fill="none" id="ConcreteFactory2-to-ConcreteProductA2" style="stroke:#454645;stroke-width:2;stroke-dasharray:14,14;"/><polygon fill="#454645" points="1039.54,688.0766,1028.1182,672.0284,1030.9323,682.9865,1019.9742,685.8006,1039.54,688.0766" style="stroke:#454645;stroke-width:2;"/><text fill="#000000" font-family="sans-serif" font-size="26" lengthAdjust="spacing" textLength="52.9268" x="940.9" y="622.0133">cr&#233;e</text></g><!--link ConcreteFactory2 to ConcreteProductB2--><g class="link" data-entity-1="ConcreteFactory2" data-entity-2="ConcreteProductB2" data-source-line="31" data-uid="lnk20" id="link_ConcreteFactory2_ConcreteProductB2"><path codeLine="31" d="M544.72,535.8366 C481.86,585.1166 412.8441,639.1733 359.9041,680.6733" fill="none" id="ConcreteFactory2-to-ConcreteProductB2" style="stroke:#454645;stroke-width:2;stroke-dasharray:14,14;"/><polygon fill="#454645" points="350.46,688.0766,369.5617,683.2677,358.3301,681.9071,359.6906,670.6755,350.46,688.0766" style="stroke:#454645;stroke-width:2;"/><text fill="#000000" font-family="sans-serif" font-size="26" lengthAdjust="spacing" textLength="52.9268" x="470.74" y="622.0133">cr&#233;e</text></g><!--link Client to AbstractFactory--><g class="link" data-entity-1="Client" data-entity-2="AbstractFactory" data-source-line="33" data-uid="lnk22" id="link_Client_AbstractFactory"><path codeLine="33" d="M652.9,169.9566 C675.5,169.9566 686.1,169.9566 708.7,169.9566" fill="none" id="Client-to-AbstractFactory" style="stroke:#454645;stroke-width:2;"/><polygon fill="#454645" points="720.7,169.9566,702.7,161.9566,710.7,169.9566,702.7,177.9566,720.7,169.9566" style="stroke:#454645;stroke-width:2;"/></g><!--link Client to AbstractProductA--><g class="link" data-entity-1="Client" data-entity-2="AbstractProductA" data-source-line="34" data-uid="lnk23" id="link_Client_AbstractProductA"><path codeLine="34" d="M638.6,218.5766 C653.82,229.8566 670.52,241.3766 686.74,250.9166 C746.22,285.9166 898.8415,352.7501 1010.4815,400.3501" fill="none" id="Client-to-AbstractProductA" style="stroke:#454645;stroke-width:2;"/><polygon fill="#454645" points="1021.52,405.0566,1008.0999,390.6378,1012.3212,401.1345,1001.8246,405.3558,1021.52,405.0566" style="stroke:#454645;stroke-width:2;"/></g><!--link Client to AbstractProductB--><g class="link" data-entity-1="Client" data-entity-2="AbstractProductB" data-source-line="35" data-uid="lnk24" id="link_Client_AbstractProductB"><path codeLine="35" d="M510.78,218.7966 C433.38,270.6366 319.4107,346.9793 242.2107,398.6793" fill="none" id="Client-to-AbstractProductB" style="stroke:#454645;stroke-width:2;"/><polygon fill="#454645" points="232.24,405.3566,251.6475,401.9878,240.5489,399.7922,242.7445,388.6936,232.24,405.3566" style="stroke:#454645;stroke-width:2;"/></g><!--SRC=[jP912i8m44NtSugnAqKKpDA5O2gkUuKOemRIL99HaEA1F8SNCmkjq2P5GJVP_Fzdtdmoe8Cg5PxrnWbBG9gCmcobnTw9CWZR4nQ2I3cBouqd9oJXEZoLksG0sWPb9wHgnC9LsvEa9TPu1Mc4zvXNLZf5wYNDK9T74xPQyfrS8iDwCsaEdkRWVHmyaM6zcGZ7ioki0SOOHedtJSFHl7jAoyGZ9WuORce1FlT4R_eR0s8KWlL3_BY7JWFJwIBov-PXuFscFhBpf9r5fxElxFnjXzpeq19E5ksU8ahJJLBYy000]--></g></svg>