<svg xmlns="http://www.w3.org/2000/svg" xmlns:xlink="http://www.w3.org/1999/xlink" contentStyleType="text/css" data-diagram-type="SEQUENCE" height="978px" preserveAspectRatio="none" style="width:2676px;height:978px;background:#FFFFFF;" version="1.1" viewBox="0 0 2676 978" width="2676px" zoomAndPan="magnify"><title>Diagramme de S&#233;quence - Architecture MVC</title><defs/><g><text fill="#000000" font-family="sans-serif" font-size="28" font-weight="bold" lengthAdjust="spacing" textLength="642.7695" x="1015.4619" y="57.0703">Diagramme de S&#233;quence - Architecture MVC</text><g><title>View</title><rect fill="#FFFFFF" height="480.9688" style="stroke:#696969;stroke-width:2;" width="20" x="968.0195" y="300.5742"/></g><g><title>Controller</title><rect fill="#FFFFFF" height="246.4844" style="stroke:#696969;stroke-width:2;" width="20" x="1908.041" y="359.1953"/></g><g><title>Model</title><rect fill="#FFFFFF" height="58.6211" style="stroke:#696969;stroke-width:2;" width="20" x="2600.377" y="488.4375"/></g><g><title>Model</title><rect fill="#FFFFFF" height="58.6211" style="stroke:#696969;stroke-width:2;" width="20" x="2600.377" y="664.3008"/></g><g><title>Utilisateur</title><rect fill="#000000" fill-opacity="0.00000" height="579.5898" width="16" x="77.3984" y="237.9531"/><line style="stroke:#696969;stroke-width:1;stroke-dasharray:10,10;" x1="84" x2="84" y1="237.9531" y2="817.543"/></g><g><title>View</title><rect fill="#000000" fill-opacity="0.00000" height="579.5898" width="16" x="970.0195" y="237.9531"/><line style="stroke:#696969;stroke-width:1;stroke-dasharray:10,10;" x1="976.2324" x2="976.2324" y1="237.9531" y2="817.543"/></g><g><title>Controller</title><rect fill="#000000" fill-opacity="0.00000" height="579.5898" width="16" x="1910.041" y="237.9531"/><line style="stroke:#696969;stroke-width:1;stroke-dasharray:10,10;" x1="1917.8799" x2="1917.8799" y1="237.9531" y2="817.543"/></g><g><title>Model</title><rect fill="#000000" fill-opacity="0.00000" height="579.5898" width="16" x="2602.377" y="237.9531"/><line style="stroke:#696969;stroke-width:1;stroke-dasharray:10,10;" x1="2609.0605" x2="2609.0605" y1="237.9531" y2="817.543"/></g><g class="participant participant-head" data-participant="User"><text fill="#454645" font-family="sans-serif" font-size="28" lengthAdjust="spacing" textLength="138.7969" x="10" y="232.0469">Utilisateur</text><ellipse cx="85.3984" cy="101.9766" fill="#454645" rx="16" ry="16" style="stroke:#454645;stroke-width:1;"/><path d="M85.3984,117.9766 L85.3984,171.9766 M59.3984,133.9766 L111.3984,133.9766 M85.3984,171.9766 L59.3984,201.9766 M85.3984,171.9766 L111.3984,201.9766" fill="none" style="stroke:#454645;stroke-width:1;"/></g><g class="participant participant-tail" data-participant="User"><text fill="#454645" font-family="sans-serif" font-size="28" lengthAdjust="spacing" textLength="138.7969" x="10" y="842.6133">Utilisateur</text><ellipse cx="85.3984" cy="865.5195" fill="#454645" rx="16" ry="16" style="stroke:#454645;stroke-width:1;"/><path d="M85.3984,881.5195 L85.3984,935.5195 M59.3984,897.5195 L111.3984,897.5195 M85.3984,935.5195 L59.3984,965.5195 M85.3984,935.5195 L111.3984,965.5195" fill="none" style="stroke:#454645;stroke-width:1;"/></g><g class="participant participant-head" data-participant="V"><rect fill="#FF6347" height="60.9766" rx="7" ry="7" style="stroke:#454645;stroke-width:3;" width="91.5742" x="932.2324" y="174.9766"/><text fill="#FFFFFF" font-family="sans-serif" font-size="28" lengthAdjust="spacing" textLength="63.5742" x="946.2324" y="216.0469">View</text></g><g class="participant participant-tail" data-participant="V"><rect fill="#FF6347" height="60.9766" rx="7" ry="7" style="stroke:#454645;stroke-width:3;" width="91.5742" x="932.2324" y="815.543"/><text fill="#FFFFFF" font-family="sans-serif" font-size="28" lengthAdjust="spacing" textLength="63.5742" x="946.2324" y="856.6133">View</text></g><g class="participant participant-head" data-participant="C"><rect fill="#FF6347" height="60.9766" rx="7" ry="7" style="stroke:#454645;stroke-width:3;" width="164.3223" x="1835.8799" y="174.9766"/><text fill="#FFFFFF" font-family="sans-serif" font-size="28" lengthAdjust="spacing" textLength="136.3223" x="1849.8799" y="216.0469">Controller</text></g><g class="participant participant-tail" data-participant="C"><rect fill="#FF6347" height="60.9766" rx="7" ry="7" style="stroke:#454645;stroke-width:3;" width="164.3223" x="1835.8799" y="815.543"/><text fill="#FFFFFF" font-family="sans-serif" font-size="28" lengthAdjust="spacing" textLength="136.3223" x="1849.8799" y="856.6133">Controller</text></g><g class="participant participant-head" data-participant="M"><rect fill="#FF6347" height="60.9766" rx="7" ry="7" style="stroke:#454645;stroke-width:3;" width="110.6328" x="2555.0605" y="174.9766"/><text fill="#FFFFFF" font-family="sans-serif" font-size="28" lengthAdjust="spacing" textLength="82.6328" x="2569.0605" y="216.0469">Model</text></g><g class="participant participant-tail" data-participant="M"><rect fill="#FF6347" height="60.9766" rx="7" ry="7" style="stroke:#454645;stroke-width:3;" width="110.6328" x="2555.0605" y="815.543"/><text fill="#FFFFFF" font-family="sans-serif" font-size="28" lengthAdjust="spacing" textLength="82.6328" x="2569.0605" y="856.6133">Model</text></g><g><title>View</title><rect fill="#FFFFFF" height="480.9688" style="stroke:#696969;stroke-width:2;" width="20" x="968.0195" y="300.5742"/></g><g><title>Controller</title><rect fill="#FFFFFF" height="246.4844" style="stroke:#696969;stroke-width:2;" width="20" x="1908.041" y="359.1953"/></g><g><title>Model</title><rect fill="#FFFFFF" height="58.6211" style="stroke:#696969;stroke-width:2;" width="20" x="2600.377" y="488.4375"/></g><g><title>Model</title><rect fill="#FFFFFF" height="58.6211" style="stroke:#696969;stroke-width:2;" width="20" x="2600.377" y="664.3008"/></g><g class="message" data-participant-1="User" data-participant-2="V"><polygon fill="#454645" points="944.0195,292.5742,964.0195,300.5742,944.0195,308.5742,952.0195,300.5742" style="stroke:#454645;stroke-width:2;"/><line style="stroke:#454645;stroke-width:2;" x1="85.3984" x2="956.0195" y1="300.5742" y2="300.5742"/><text fill="#000000" font-family="sans-serif" font-size="26" font-weight="bold" lengthAdjust="spacing" textLength="17.1514" x="99.3984" y="291.0898">1</text><text fill="#000000" font-family="sans-serif" font-size="26" lengthAdjust="spacing" textLength="819.4697" x="124.5498" y="291.0898">Interagit avec l'interface (ex: clique sur un bouton "Sauvegarder")</text></g><g class="message" data-participant-1="V" data-participant-2="C"><polygon fill="#454645" points="1884.041,351.1953,1904.041,359.1953,1884.041,367.1953,1892.041,359.1953" style="stroke:#454645;stroke-width:2;"/><line style="stroke:#454645;stroke-width:2;" x1="988.0195" x2="1896.041" y1="359.1953" y2="359.1953"/><text fill="#000000" font-family="sans-serif" font-size="26" font-weight="bold" lengthAdjust="spacing" textLength="17.1514" x="1002.0195" y="349.7109">2</text><text fill="#000000" font-family="sans-serif" font-size="26" lengthAdjust="spacing" textLength="856.8701" x="1027.1709" y="349.7109">Appelle une m&#233;thode du contr&#244;leur (ex: sauvegarderDonnees(data))</text></g><path d="M1938,392.1953 L1938,428.1953 A7,7 0 0 0 1945,435.1953 L2483,435.1953 A7,7 0 0 0 2490,428.1953 L2490,405.1953 L2470,385.1953 L1945,385.1953 A7,7 0 0 0 1938,392.1953" fill="#7FFFD4" style="stroke:#454645;stroke-width:3;"/><path d="M2470,385.1953 L2470,401.6953 A3.5,3.5 0 0 0 2473.5,405.1953 L2490,405.1953 L2470,385.1953" fill="#7FFFD4" style="stroke:#454645;stroke-width:3;"/><text fill="#454645" font-family="sans-serif" font-size="26" lengthAdjust="spacing" textLength="511.3418" x="1950" y="420.332">Le contr&#244;leur re&#231;oit la requ&#234;te de la vue.</text><g class="message" data-participant-1="C" data-participant-2="M"><polygon fill="#454645" points="2576.377,480.4375,2596.377,488.4375,2576.377,496.4375,2584.377,488.4375" style="stroke:#454645;stroke-width:2;"/><line style="stroke:#454645;stroke-width:2;" x1="1928.041" x2="2588.377" y1="488.4375" y2="488.4375"/><text fill="#000000" font-family="sans-serif" font-size="26" font-weight="bold" lengthAdjust="spacing" textLength="17.1514" x="1942.041" y="478.9531">3</text><text fill="#000000" font-family="sans-serif" font-size="26" lengthAdjust="spacing" textLength="609.1846" x="1967.1924" y="478.9531">Met &#224; jour le mod&#232;le avec les nouvelles donn&#233;es</text></g><g class="message" data-participant-1="M" data-participant-2="C"><polygon fill="#454645" points="1950.041,539.0586,1930.041,547.0586,1950.041,555.0586,1942.041,547.0586" style="stroke:#454645;stroke-width:2;"/><line style="stroke:#454645;stroke-width:2;stroke-dasharray:4,4;" x1="1938.041" x2="2608.377" y1="547.0586" y2="547.0586"/><text fill="#000000" font-family="sans-serif" font-size="26" font-weight="bold" lengthAdjust="spacing" textLength="17.1514" x="1962.041" y="537.5742">4</text><text fill="#000000" font-family="sans-serif" font-size="26" lengthAdjust="spacing" textLength="295.8896" x="1987.1924" y="537.5742">Confirme la mise &#224; jour</text></g><g class="message" data-participant-1="C" data-participant-2="V"><polygon fill="#454645" points="1010.0195,597.6797,990.0195,605.6797,1010.0195,613.6797,1002.0195,605.6797" style="stroke:#454645;stroke-width:2;"/><line style="stroke:#454645;stroke-width:2;stroke-dasharray:4,4;" x1="998.0195" x2="1916.041" y1="605.6797" y2="605.6797"/><text fill="#000000" font-family="sans-serif" font-size="26" font-weight="bold" lengthAdjust="spacing" textLength="17.1514" x="1022.0195" y="596.1953">5</text><text fill="#000000" font-family="sans-serif" font-size="26" lengthAdjust="spacing" textLength="474.6016" x="1047.1709" y="596.1953">Notifie la vue que le mod&#232;le a chang&#233;</text></g><g class="message" data-participant-1="V" data-participant-2="M"><polygon fill="#454645" points="2576.377,656.3008,2596.377,664.3008,2576.377,672.3008,2584.377,664.3008" style="stroke:#454645;stroke-width:2;"/><line style="stroke:#454645;stroke-width:2;" x1="988.0195" x2="2588.377" y1="664.3008" y2="664.3008"/><text fill="#000000" font-family="sans-serif" font-size="26" font-weight="bold" lengthAdjust="spacing" textLength="17.1514" x="1002.0195" y="654.8164">6</text><text fill="#000000" font-family="sans-serif" font-size="26" lengthAdjust="spacing" textLength="499.624" x="1027.1709" y="654.8164">Demande les donn&#233;es &#224; jour au mod&#232;le</text></g><g class="message" data-participant-1="M" data-participant-2="V"><polygon fill="#454645" points="1010.0195,714.9219,990.0195,722.9219,1010.0195,730.9219,1002.0195,722.9219" style="stroke:#454645;stroke-width:2;"/><line style="stroke:#454645;stroke-width:2;stroke-dasharray:4,4;" x1="998.0195" x2="2608.377" y1="722.9219" y2="722.9219"/><text fill="#000000" font-family="sans-serif" font-size="26" font-weight="bold" lengthAdjust="spacing" textLength="17.1514" x="1022.0195" y="713.4375">7</text><text fill="#000000" font-family="sans-serif" font-size="26" lengthAdjust="spacing" textLength="338.4951" x="1047.1709" y="713.4375">Renvoie les donn&#233;es &#224; jour</text></g><g class="message" data-participant-1="V" data-participant-2="User"><polygon fill="#454645" points="107.3984,773.543,87.3984,781.543,107.3984,789.543,99.3984,781.543" style="stroke:#454645;stroke-width:2;"/><line style="stroke:#454645;stroke-width:2;" x1="95.3984" x2="976.0195" y1="781.543" y2="781.543"/><text fill="#000000" font-family="sans-serif" font-size="26" font-weight="bold" lengthAdjust="spacing" textLength="17.1514" x="119.3984" y="772.0586">8</text><text fill="#000000" font-family="sans-serif" font-size="26" lengthAdjust="spacing" textLength="481.3047" x="144.5498" y="772.0586">Met &#224; jour l'affichage pour l'utilisateur</text></g><!--SRC=[RP8nSjim44Lxd6B3HdQX7425PpnG2is4reniir-HIn8P4A311PFZf4kKEZVWnRAWx8Zok2A81Vv_VnUVkAMEO3J7W8uL6xO4sTPW4x2JGaNmE9rU8hcIO0tteMmDKyan4EI5pfJ2ads0vu42u03PCnjh1cIAGOez1ZQbwKKRiiBGzomTAgxtjNSSlBKKvgg-hkQ-8ZiNSZ6Bx5tiZXIKcYtNTr1iOEUO0ZQ60KSgmQvCsgXHc6_enmPAQoG23350T73qIGMoHumZDHWgCRvDESmet4AdYgIhDt3VzoHSSecWcqxS2WjK4Sf4FFsr4l9iC5oajjuvek6cGiRRXQnMArYlrw3tXyCN_RJRFy1ExzAM5FOEujmu4dYq9dLIPq0CJaY5mFbENBlUqdN3bFEY7KpJClWwCN-bAxn0qoylZR4eovSu_U5vgF8xHlgib4vHymta8ZpzX6zUxeXVvwlfjtpF_QH102IXJQjA0aud6YxHP32v19bR9cor2TtiqAKyhwAgekLvFP-NqJruDhLv0u8qfgKzb2swPZejh-lN0GdrbZfqASw2wtyCZ6yw7w2AzO7SwCt7bz_XpdxfmRrhr0hhsWXYGz2VD-Bb_Iyr2lKF]--></g></svg>