<svg xmlns="http://www.w3.org/2000/svg" xmlns:xlink="http://www.w3.org/1999/xlink" contentStyleType="text/css" data-diagram-type="CLASS" height="990px" preserveAspectRatio="none" style="width:1450px;height:990px;background:#FFFFFF;" version="1.1" viewBox="0 0 1450 990" width="1450px" zoomAndPan="magnify"><title>Architecture du Syst&#232;me de Promotions</title><defs/><g><g class="title" data-source-line="2"><text fill="#000000" font-family="sans-serif" font-size="28" font-weight="bold" lengthAdjust="spacing" textLength="570.9238" x="425.5381" y="47.0703">Architecture du Syst&#232;me de Promotions</text></g><!--cluster Promotion Strategies--><g class="cluster" data-entity="Promotion Strategies" data-source-line="9" data-uid="ent0006" id="cluster_Promotion Strategies"><path d="M19,528.9766 L319.873,528.9766 A10.5,10.5 0 0 1 326.873,535.9766 L340.873,573.9531 L787,573.9531 A7,7 0 0 1 794,580.9531 L794,970.9566 A7,7 0 0 1 787,977.9566 L19,977.9566 A7,7 0 0 1 12,970.9566 L12,535.9766 A7,7 0 0 1 19,528.9766" fill="none" style="stroke:#696969;stroke-width:2;"/><line style="stroke:#696969;stroke-width:2;" x1="12" x2="340.873" y1="573.9531" y2="573.9531"/><text fill="#000000" font-family="sans-serif" font-size="28" font-weight="bold" lengthAdjust="spacing" textLength="302.873" x="20" y="560.0469">Promotion Strategies</text></g><!--cluster Notification--><g class="cluster" data-entity="Notification" data-source-line="17" data-uid="ent0012" id="cluster_Notification"><path d="M849,528.9766 L1015.6563,528.9766 A10.5,10.5 0 0 1 1022.6563,535.9766 L1036.6563,573.9531 L1429,573.9531 A7,7 0 0 1 1436,580.9531 L1436,970.9566 A7,7 0 0 1 1429,977.9566 L849,977.9566 A7,7 0 0 1 842,970.9566 L842,535.9766 A7,7 0 0 1 849,528.9766" fill="none" style="stroke:#696969;stroke-width:2;"/><line style="stroke:#696969;stroke-width:2;" x1="842" x2="1036.6563" y1="573.9531" y2="573.9531"/><text fill="#000000" font-family="sans-serif" font-size="28" font-weight="bold" lengthAdjust="spacing" textLength="168.6563" x="850" y="560.0469">Notification</text></g><!--class PromotionStrategy--><g class="entity" data-entity="PromotionStrategy" data-source-line="10" data-uid="ent0007" id="entity_PromotionStrategy"><rect fill="#F1F1F1" height="128.9766" rx="7" ry="7" style="stroke:#181818;stroke-width:1;" width="315.248" x="428.38" y="598.9766"/><ellipse cx="458.38" cy="630.9766" fill="#B4A7E5" rx="22" ry="22" style="stroke:#181818;stroke-width:2;"/><path d="M450.2355,622.5068 L450.2355,618.1904 L464.9943,618.1904 L464.9943,622.5068 L460.0636,622.5068 L460.0636,638.6602 L464.9943,638.6602 L464.9943,642.9766 L450.2355,642.9766 L450.2355,638.6602 L455.1661,638.6602 L455.1661,622.5068 Z " fill="#000000"/><text fill="#000000" font-family="sans-serif" font-size="28" font-style="italic" lengthAdjust="spacing" textLength="251.248" x="486.38" y="641.5586">PromotionStrategy</text><line style="stroke:#181818;stroke-width:1;" x1="430.38" x2="741.628" y1="662.9766" y2="662.9766"/><line style="stroke:#181818;stroke-width:1;" x1="430.38" x2="741.628" y1="678.9766" y2="678.9766"/><ellipse cx="450.38" cy="706.4648" fill="#84BE84" rx="6" ry="6" style="stroke:#038048;stroke-width:2;"/><text fill="#000000" font-family="sans-serif" font-size="28" lengthAdjust="spacing" textLength="254.0234" x="468.38" y="714.0469">generateMessage()</text></g><!--class DiscountStrategy--><g class="entity" data-entity="DiscountStrategy" data-source-line="13" data-uid="ent0008" id="entity_DiscountStrategy"><rect fill="#F1F1F1" height="96" rx="7" ry="7" style="stroke:#181818;stroke-width:1;" width="294.7402" x="44.62" y="849.9566"/><ellipse cx="74.62" cy="881.9566" fill="#ADD1B2" rx="22" ry="22" style="stroke:#181818;stroke-width:2;"/><path d="M80.5663,893.2427 Q79.4042,893.8404 78.1259,894.1392 Q76.8475,894.438 75.4364,894.438 Q70.4227,894.438 67.7831,891.1343 Q65.1434,887.8306 65.1434,881.5884 Q65.1434,875.3296 67.7831,872.0259 Q70.4227,868.7222 75.4364,868.7222 Q76.8475,868.7222 78.1425,869.021 Q79.4374,869.3198 80.5663,869.9175 L80.5663,875.3628 Q79.3046,874.2007 78.1176,873.6612 Q76.9305,873.1216 75.6688,873.1216 Q72.9794,873.1216 71.6097,875.2549 Q70.2401,877.3882 70.2401,881.5884 Q70.2401,885.772 71.6097,887.9053 Q72.9794,890.0386 75.6688,890.0386 Q76.9305,890.0386 78.1176,889.499 Q79.3046,888.9595 80.5663,887.7974 Z " fill="#000000"/><text fill="#000000" font-family="sans-serif" font-size="28" lengthAdjust="spacing" textLength="230.7402" x="102.62" y="892.5386">DiscountStrategy</text><line style="stroke:#181818;stroke-width:1;" x1="46.62" x2="337.3602" y1="913.9566" y2="913.9566"/><line style="stroke:#181818;stroke-width:1;" x1="46.62" x2="337.3602" y1="929.9566" y2="929.9566"/></g><!--class ThreeForTwoStrategy--><g class="entity" data-entity="ThreeForTwoStrategy" data-source-line="14" data-uid="ent0010" id="entity_ThreeForTwoStrategy"><rect fill="#F1F1F1" height="96" rx="7" ry="7" style="stroke:#181818;stroke-width:1;" width="352.5176" x="409.74" y="849.9566"/><ellipse cx="439.74" cy="881.9566" fill="#ADD1B2" rx="22" ry="22" style="stroke:#181818;stroke-width:2;"/><path d="M445.6863,893.2427 Q444.5242,893.8404 443.2459,894.1392 Q441.9675,894.438 440.5564,894.438 Q435.5427,894.438 432.9031,891.1343 Q430.2634,887.8306 430.2634,881.5884 Q430.2634,875.3296 432.9031,872.0259 Q435.5427,868.7222 440.5564,868.7222 Q441.9675,868.7222 443.2625,869.021 Q444.5574,869.3198 445.6863,869.9175 L445.6863,875.3628 Q444.4246,874.2007 443.2376,873.6612 Q442.0505,873.1216 440.7888,873.1216 Q438.0994,873.1216 436.7297,875.2549 Q435.3601,877.3882 435.3601,881.5884 Q435.3601,885.772 436.7297,887.9053 Q438.0994,890.0386 440.7888,890.0386 Q442.0505,890.0386 443.2376,889.499 Q444.4246,888.9595 445.6863,887.7974 Z " fill="#000000"/><text fill="#000000" font-family="sans-serif" font-size="28" lengthAdjust="spacing" textLength="288.5176" x="467.74" y="892.5386">ThreeForTwoStrategy</text><line style="stroke:#181818;stroke-width:1;" x1="411.74" x2="760.2576" y1="913.9566" y2="913.9566"/><line style="stroke:#181818;stroke-width:1;" x1="411.74" x2="760.2576" y1="929.9566" y2="929.9566"/></g><!--class Notifier--><g class="entity" data-entity="Notifier" data-source-line="18" data-uid="ent0013" id="entity_Notifier"><rect fill="#F1F1F1" height="128.9766" rx="7" ry="7" style="stroke:#181818;stroke-width:1;" width="165.8965" x="911.06" y="598.9766"/><ellipse cx="941.06" cy="630.9766" fill="#B4A7E5" rx="22" ry="22" style="stroke:#181818;stroke-width:2;"/><path d="M932.9155,622.5068 L932.9155,618.1904 L947.6743,618.1904 L947.6743,622.5068 L942.7436,622.5068 L942.7436,638.6602 L947.6743,638.6602 L947.6743,642.9766 L932.9155,642.9766 L932.9155,638.6602 L937.8461,638.6602 L937.8461,622.5068 Z " fill="#000000"/><text fill="#000000" font-family="sans-serif" font-size="28" font-style="italic" lengthAdjust="spacing" textLength="101.8965" x="969.06" y="641.5586">Notifier</text><line style="stroke:#181818;stroke-width:1;" x1="913.06" x2="1074.9565" y1="662.9766" y2="662.9766"/><line style="stroke:#181818;stroke-width:1;" x1="913.06" x2="1074.9565" y1="678.9766" y2="678.9766"/><ellipse cx="933.06" cy="706.4648" fill="#84BE84" rx="6" ry="6" style="stroke:#038048;stroke-width:2;"/><text fill="#000000" font-family="sans-serif" font-size="28" lengthAdjust="spacing" textLength="83.084" x="951.06" y="714.0469">send()</text></g><!--class EmailNotifier--><g class="entity" data-entity="EmailNotifier" data-source-line="21" data-uid="ent0014" id="entity_EmailNotifier"><rect fill="#F1F1F1" height="96" rx="7" ry="7" style="stroke:#181818;stroke-width:1;" width="238.8633" x="874.56" y="849.9566"/><ellipse cx="904.56" cy="881.9566" fill="#ADD1B2" rx="22" ry="22" style="stroke:#181818;stroke-width:2;"/><path d="M910.5063,893.2427 Q909.3442,893.8404 908.0659,894.1392 Q906.7875,894.438 905.3764,894.438 Q900.3627,894.438 897.7231,891.1343 Q895.0834,887.8306 895.0834,881.5884 Q895.0834,875.3296 897.7231,872.0259 Q900.3627,868.7222 905.3764,868.7222 Q906.7875,868.7222 908.0825,869.021 Q909.3774,869.3198 910.5063,869.9175 L910.5063,875.3628 Q909.2446,874.2007 908.0576,873.6612 Q906.8705,873.1216 905.6088,873.1216 Q902.9194,873.1216 901.5497,875.2549 Q900.1801,877.3882 900.1801,881.5884 Q900.1801,885.772 901.5497,887.9053 Q902.9194,890.0386 905.6088,890.0386 Q906.8705,890.0386 908.0576,889.499 Q909.2446,888.9595 910.5063,887.7974 Z " fill="#000000"/><text fill="#000000" font-family="sans-serif" font-size="28" lengthAdjust="spacing" textLength="174.8633" x="932.56" y="892.5386">EmailNotifier</text><line style="stroke:#181818;stroke-width:1;" x1="876.56" x2="1111.4233" y1="913.9566" y2="913.9566"/><line style="stroke:#181818;stroke-width:1;" x1="876.56" x2="1111.4233" y1="929.9566" y2="929.9566"/></g><!--class SmsNotifier--><g class="entity" data-entity="SmsNotifier" data-source-line="22" data-uid="ent0016" id="entity_SmsNotifier"><rect fill="#F1F1F1" height="96" rx="7" ry="7" style="stroke:#181818;stroke-width:1;" width="221.3906" x="1183.3" y="849.9566"/><ellipse cx="1213.3" cy="881.9566" fill="#ADD1B2" rx="22" ry="22" style="stroke:#181818;stroke-width:2;"/><path d="M1219.2463,893.2427 Q1218.0842,893.8404 1216.8059,894.1392 Q1215.5275,894.438 1214.1164,894.438 Q1209.1027,894.438 1206.4631,891.1343 Q1203.8234,887.8306 1203.8234,881.5884 Q1203.8234,875.3296 1206.4631,872.0259 Q1209.1027,868.7222 1214.1164,868.7222 Q1215.5275,868.7222 1216.8225,869.021 Q1218.1174,869.3198 1219.2463,869.9175 L1219.2463,875.3628 Q1217.9846,874.2007 1216.7976,873.6612 Q1215.6105,873.1216 1214.3488,873.1216 Q1211.6594,873.1216 1210.2897,875.2549 Q1208.9201,877.3882 1208.9201,881.5884 Q1208.9201,885.772 1210.2897,887.9053 Q1211.6594,890.0386 1214.3488,890.0386 Q1215.6105,890.0386 1216.7976,889.499 Q1217.9846,888.9595 1219.2463,887.7974 Z " fill="#000000"/><text fill="#000000" font-family="sans-serif" font-size="28" lengthAdjust="spacing" textLength="157.3906" x="1241.3" y="892.5386">SmsNotifier</text><line style="stroke:#181818;stroke-width:1;" x1="1185.3" x2="1402.6906" y1="913.9566" y2="913.9566"/><line style="stroke:#181818;stroke-width:1;" x1="1185.3" x2="1402.6906" y1="929.9566" y2="929.9566"/></g><!--class ClientController--><g class="entity" data-entity="ClientController" data-source-line="4" data-uid="ent0002" id="entity_ClientController"><rect fill="#F1F1F1" height="96" rx="7" ry="7" style="stroke:#181818;stroke-width:1;" width="279.332" x="330.34" y="88.9766"/><ellipse cx="360.34" cy="120.9766" fill="#ADD1B2" rx="22" ry="22" style="stroke:#181818;stroke-width:2;"/><path d="M366.2863,132.2627 Q365.1242,132.8604 363.8459,133.1592 Q362.5675,133.458 361.1564,133.458 Q356.1427,133.458 353.5031,130.1543 Q350.8634,126.8506 350.8634,120.6084 Q350.8634,114.3496 353.5031,111.0459 Q356.1427,107.7422 361.1564,107.7422 Q362.5675,107.7422 363.8625,108.041 Q365.1574,108.3398 366.2863,108.9375 L366.2863,114.3828 Q365.0246,113.2207 363.8376,112.6812 Q362.6505,112.1416 361.3888,112.1416 Q358.6994,112.1416 357.3297,114.2749 Q355.9601,116.4082 355.9601,120.6084 Q355.9601,124.792 357.3297,126.9253 Q358.6994,129.0586 361.3888,129.0586 Q362.6505,129.0586 363.8376,128.519 Q365.0246,127.9795 366.2863,126.8174 Z " fill="#000000"/><text fill="#000000" font-family="sans-serif" font-size="28" lengthAdjust="spacing" textLength="215.332" x="388.34" y="131.5586">ClientController</text><line style="stroke:#181818;stroke-width:1;" x1="332.34" x2="607.672" y1="152.9766" y2="152.9766"/><line style="stroke:#181818;stroke-width:1;" x1="332.34" x2="607.672" y1="168.9766" y2="168.9766"/></g><!--class PromotionFacade--><g class="entity" data-entity="PromotionFacade" data-source-line="5" data-uid="ent0003" id="entity_PromotionFacade"><rect fill="#F1F1F1" height="96" rx="7" ry="7" style="stroke:#181818;stroke-width:1;" width="157.502" x="987.24" y="88.9766"/><ellipse cx="1017.24" cy="120.9766" fill="#ADD1B2" rx="22" ry="22" style="stroke:#181818;stroke-width:2;"/><path d="M1023.1863,132.2627 Q1022.0242,132.8604 1020.7459,133.1592 Q1019.4675,133.458 1018.0564,133.458 Q1013.0427,133.458 1010.4031,130.1543 Q1007.7634,126.8506 1007.7634,120.6084 Q1007.7634,114.3496 1010.4031,111.0459 Q1013.0427,107.7422 1018.0564,107.7422 Q1019.4675,107.7422 1020.7625,108.041 Q1022.0574,108.3398 1023.1863,108.9375 L1023.1863,114.3828 Q1021.9246,113.2207 1020.7376,112.6812 Q1019.5505,112.1416 1018.2888,112.1416 Q1015.5994,112.1416 1014.2297,114.2749 Q1012.8601,116.4082 1012.8601,120.6084 Q1012.8601,124.792 1014.2297,126.9253 Q1015.5994,129.0586 1018.2888,129.0586 Q1019.5505,129.0586 1020.7376,128.519 Q1021.9246,127.9795 1023.1863,126.8174 Z " fill="#000000"/><text fill="#000000" font-family="sans-serif" font-size="28" lengthAdjust="spacing" textLength="93.502" x="1045.24" y="131.5586">Facade</text><line style="stroke:#181818;stroke-width:1;" x1="989.24" x2="1142.742" y1="152.9766" y2="152.9766"/><line style="stroke:#181818;stroke-width:1;" x1="989.24" x2="1142.742" y1="168.9766" y2="168.9766"/></g><!--class PromotionService--><g class="entity" data-entity="PromotionService" data-source-line="6" data-uid="ent0004" id="entity_PromotionService"><rect fill="#F1F1F1" height="96" rx="7" ry="7" style="stroke:#181818;stroke-width:1;" width="299.2793" x="478.36" y="306.9766"/><ellipse cx="508.36" cy="338.9766" fill="#ADD1B2" rx="22" ry="22" style="stroke:#181818;stroke-width:2;"/><path d="M514.3063,350.2627 Q513.1442,350.8604 511.8659,351.1592 Q510.5875,351.458 509.1764,351.458 Q504.1627,351.458 501.5231,348.1543 Q498.8834,344.8506 498.8834,338.6084 Q498.8834,332.3496 501.5231,329.0459 Q504.1627,325.7422 509.1764,325.7422 Q510.5875,325.7422 511.8825,326.041 Q513.1774,326.3398 514.3063,326.9375 L514.3063,332.3828 Q513.0446,331.2207 511.8576,330.6812 Q510.6705,330.1416 509.4088,330.1416 Q506.7194,330.1416 505.3497,332.2749 Q503.9801,334.4082 503.9801,338.6084 Q503.9801,342.792 505.3497,344.9253 Q506.7194,347.0586 509.4088,347.0586 Q510.6705,347.0586 511.8576,346.519 Q513.0446,345.9795 514.3063,344.8174 Z " fill="#000000"/><text fill="#000000" font-family="sans-serif" font-size="28" lengthAdjust="spacing" textLength="235.2793" x="536.36" y="349.5586">PromotionService</text><line style="stroke:#181818;stroke-width:1;" x1="480.36" x2="775.6393" y1="370.9766" y2="370.9766"/><line style="stroke:#181818;stroke-width:1;" x1="480.36" x2="775.6393" y1="386.9766" y2="386.9766"/></g><!--class NotifierFactory--><g class="entity" data-entity="NotifierFactory" data-source-line="7" data-uid="ent0005" id="entity_NotifierFactory"><rect fill="#F1F1F1" height="96" rx="7" ry="7" style="stroke:#181818;stroke-width:1;" width="264.4707" x="853.76" y="306.9766"/><ellipse cx="883.76" cy="338.9766" fill="#ADD1B2" rx="22" ry="22" style="stroke:#181818;stroke-width:2;"/><path d="M889.7063,350.2627 Q888.5442,350.8604 887.2659,351.1592 Q885.9875,351.458 884.5764,351.458 Q879.5627,351.458 876.9231,348.1543 Q874.2834,344.8506 874.2834,338.6084 Q874.2834,332.3496 876.9231,329.0459 Q879.5627,325.7422 884.5764,325.7422 Q885.9875,325.7422 887.2825,326.041 Q888.5774,326.3398 889.7063,326.9375 L889.7063,332.3828 Q888.4446,331.2207 887.2576,330.6812 Q886.0705,330.1416 884.8088,330.1416 Q882.1194,330.1416 880.7497,332.2749 Q879.3801,334.4082 879.3801,338.6084 Q879.3801,342.792 880.7497,344.9253 Q882.1194,347.0586 884.8088,347.0586 Q886.0705,347.0586 887.2576,346.519 Q888.4446,345.9795 889.7063,344.8174 Z " fill="#000000"/><text fill="#000000" font-family="sans-serif" font-size="28" lengthAdjust="spacing" textLength="200.4707" x="911.76" y="349.5586">NotifierFactory</text><line style="stroke:#181818;stroke-width:1;" x1="855.76" x2="1116.2307" y1="370.9766" y2="370.9766"/><line style="stroke:#181818;stroke-width:1;" x1="855.76" x2="1116.2307" y1="386.9766" y2="386.9766"/></g><!--class Facade--><g class="entity" data-entity="Facade" data-source-line="26" data-uid="ent0018" id="entity_Facade"><rect fill="#F1F1F1" height="96" rx="7" ry="7" style="stroke:#181818;stroke-width:1;" width="157.502" x="759.24" y="88.9766"/><ellipse cx="789.24" cy="120.9766" fill="#ADD1B2" rx="22" ry="22" style="stroke:#181818;stroke-width:2;"/><path d="M795.1863,132.2627 Q794.0242,132.8604 792.7459,133.1592 Q791.4675,133.458 790.0564,133.458 Q785.0427,133.458 782.4031,130.1543 Q779.7634,126.8506 779.7634,120.6084 Q779.7634,114.3496 782.4031,111.0459 Q785.0427,107.7422 790.0564,107.7422 Q791.4675,107.7422 792.7625,108.041 Q794.0574,108.3398 795.1863,108.9375 L795.1863,114.3828 Q793.9246,113.2207 792.7376,112.6812 Q791.5505,112.1416 790.2888,112.1416 Q787.5994,112.1416 786.2297,114.2749 Q784.8601,116.4082 784.8601,120.6084 Q784.8601,124.792 786.2297,126.9253 Q787.5994,129.0586 790.2888,129.0586 Q791.5505,129.0586 792.7376,128.519 Q793.9246,127.9795 795.1863,126.8174 Z " fill="#000000"/><text fill="#000000" font-family="sans-serif" font-size="28" lengthAdjust="spacing" textLength="93.502" x="817.24" y="131.5586">Facade</text><line style="stroke:#181818;stroke-width:1;" x1="761.24" x2="914.742" y1="152.9766" y2="152.9766"/><line style="stroke:#181818;stroke-width:1;" x1="761.24" x2="914.742" y1="168.9766" y2="168.9766"/></g><!--reverse link PromotionStrategy to DiscountStrategy--><g class="link" data-entity-1="PromotionStrategy" data-entity-2="DiscountStrategy" data-source-line="13" data-uid="lnk9" id="link_PromotionStrategy_DiscountStrategy"><path d="M446.7468,746.935 C381.5868,785.055 331.12,814.5766 271.82,849.2566" fill="none" id="PromotionStrategy-backto-DiscountStrategy" style="stroke:#454645;stroke-width:2;stroke-dasharray:14,14;"/><polygon fill="none" points="477.82,728.7566,440.6873,736.5773,452.8063,757.2928,477.82,728.7566" style="stroke:#454645;stroke-width:2;"/></g><!--reverse link PromotionStrategy to ThreeForTwoStrategy--><g class="link" data-entity-1="PromotionStrategy" data-entity-2="ThreeForTwoStrategy" data-source-line="14" data-uid="lnk11" id="link_PromotionStrategy_ThreeForTwoStrategy"><path d="M586,764.4566 C586,802.5766 586,814.3766 586,849.1366" fill="none" id="PromotionStrategy-backto-ThreeForTwoStrategy" style="stroke:#454645;stroke-width:2;stroke-dasharray:14,14;"/><polygon fill="none" points="586,728.4566,574,764.4566,598,764.4566,586,728.4566" style="stroke:#454645;stroke-width:2;"/></g><!--reverse link Notifier to EmailNotifier--><g class="link" data-entity-1="Notifier" data-entity-2="EmailNotifier" data-source-line="21" data-uid="lnk15" id="link_Notifier_EmailNotifier"><path d="M994,764.4566 C994,802.5766 994,814.3766 994,849.1366" fill="none" id="Notifier-backto-EmailNotifier" style="stroke:#454645;stroke-width:2;stroke-dasharray:14,14;"/><polygon fill="none" points="994,728.4566,982,764.4566,1006,764.4566,994,728.4566" style="stroke:#454645;stroke-width:2;"/></g><!--reverse link Notifier to SmsNotifier--><g class="link" data-entity-1="Notifier" data-entity-2="SmsNotifier" data-source-line="22" data-uid="lnk17" id="link_Notifier_SmsNotifier"><path d="M1104.5281,750.3884 C1154.1481,788.5084 1187.8,814.3766 1233.06,849.1366" fill="none" id="Notifier-backto-SmsNotifier" style="stroke:#454645;stroke-width:2;stroke-dasharray:14,14;"/><polygon fill="none" points="1075.98,728.4566,1097.2176,759.9044,1111.8387,740.8723,1075.98,728.4566" style="stroke:#454645;stroke-width:2;"/></g><!--link ClientController to Facade--><g class="link" data-entity-1="ClientController" data-entity-2="Facade" data-source-line="26" data-uid="lnk19" id="link_ClientController_Facade"><path codeLine="26" d="M610.18,136.9766 C660.34,136.9766 703.14,136.9766 746.4,136.9766" fill="none" id="ClientController-to-Facade" style="stroke:#454645;stroke-width:2;stroke-dasharray:14,14;"/><polygon fill="#454645" points="758.4,136.9766,740.4,128.9766,748.4,136.9766,740.4,144.9766,758.4,136.9766" style="stroke:#454645;stroke-width:2;"/><text fill="#000000" font-family="sans-serif" font-size="26" lengthAdjust="spacing" textLength="76.1465" x="646.46" y="124.1133">utilise</text></g><!--reverse link Facade to PromotionService--><g class="link" data-entity-1="Facade" data-entity-2="PromotionService" data-source-line="27" data-uid="lnk20" id="link_Facade_PromotionService"><path codeLine="27" d="M775.1086,203.0648 C740.0886,238.7448 708.96,270.4766 673.98,306.1166" fill="none" id="Facade-backto-PromotionService" style="stroke:#454645;stroke-width:2;"/><polygon fill="none" points="791.92,185.9366,777.8049,188.8969,775.1086,203.0648,789.2237,200.1045,791.92,185.9366" style="stroke:#454645;stroke-width:2;"/></g><!--reverse link Facade to NotifierFactory--><g class="link" data-entity-1="Facade" data-entity-2="NotifierFactory" data-source-line="28" data-uid="lnk21" id="link_Facade_NotifierFactory"><path codeLine="28" d="M884.133,205.6747 C908.813,241.3547 928.94,270.4766 953.6,306.1166" fill="none" id="Facade-backto-NotifierFactory" style="stroke:#454645;stroke-width:2;"/><polygon fill="none" points="870.48,185.9366,870.7271,200.3567,884.133,205.6747,883.8859,191.2547,870.48,185.9366" style="stroke:#454645;stroke-width:2;"/></g><!--reverse link PromotionService to PromotionStrategy--><g class="link" data-entity-1="PromotionService" data-entity-2="PromotionStrategy" data-source-line="29" data-uid="lnk22" id="link_PromotionService_PromotionStrategy"><path codeLine="29" d="M618.2487,427.6726 C611.0887,479.7126 602.72,540.1966 594.74,598.0966" fill="none" id="PromotionService-backto-PromotionStrategy" style="stroke:#454645;stroke-width:2;"/><polygon fill="none" points="621.52,403.8966,611.959,414.6942,618.2487,427.6726,627.8097,416.875,621.52,403.8966" style="stroke:#454645;stroke-width:2;"/></g><!--link NotifierFactory to Notifier--><g class="link" data-entity-1="NotifierFactory" data-entity-2="Notifier" data-source-line="30" data-uid="lnk23" id="link_NotifierFactory_Notifier"><path codeLine="30" d="M987.24,403.8966 C988.6,455.9366 990.5051,528.2007 992.0251,586.1007" fill="none" id="NotifierFactory-to-Notifier" style="stroke:#454645;stroke-width:2;stroke-dasharray:14,14;"/><polygon fill="#454645" points="992.34,598.0966,999.8649,579.8928,992.0776,588.1,983.8704,580.3127,992.34,598.0966" style="stroke:#454645;stroke-width:2;"/><text fill="#000000" font-family="sans-serif" font-size="26" lengthAdjust="spacing" textLength="52.9268" x="991.52" y="490.1133">cr&#233;e</text></g><!--SRC=[ZP5HJW8n48RVUufnNzGOE00F9WRaJMEoNA1s1vZORSdCB8OOxYFdu6AMfMpM9J6-jTFld_up_uskiKROqZlRe4P9FKBnn6vDYauRHgWQA7UYn-_4LGXl7Eke58CKnZXlHM3g2ODEOr2EtYFdSaVEhRD9QGMAyx4O4YNobXpcyckgBGavmHfvPyp6kW-xIiOw0PJALd55A0Ly6GgAlBIkPoy3k_Jw02iCUBg-e4XgT7Tlzlcl6OcBJT0EfthZqqg2odMlh5ci6N4UUV4P_oVRzqOu3-Vi2VXj_J9swrWmL3sRpxKbtm6zpowrp9Mr_4ab9xSmEnwM5AZTOuK2ZBwr8o3AJPjwYb7CC5SOFqBESWADaYT1amjnDBgEi_Ssp7J83XfSDZUGmJXPw0QSWEFZ0SqF]--></g></svg>