<svg xmlns="http://www.w3.org/2000/svg" xmlns:xlink="http://www.w3.org/1999/xlink" contentStyleType="text/css" data-diagram-type="SEQUENCE" height="908px" preserveAspectRatio="none" style="width:1978px;height:908px;background:#FFFFFF;" version="1.1" viewBox="0 0 1978 908" width="1978px" zoomAndPan="magnify"><title>S&#233;quence de Lancement d'une Campagne de Promotion</title><defs/><g><text fill="#000000" font-family="sans-serif" font-size="28" font-weight="bold" lengthAdjust="spacing" textLength="796.5098" x="593.9775" y="57.0703">S&#233;quence de Lancement d'une Campagne de Promotion</text><g><title>PromotionFacade</title><rect fill="#FFFFFF" height="591.5898" style="stroke:#696969;stroke-width:2;" width="20" x="679.3574" y="210.5742"/></g><g><title>PromotionService</title><rect fill="#FFFFFF" height="175.8633" style="stroke:#696969;stroke-width:2;" width="20" x="1107.21" y="317.8164"/></g><g><title>NotifierFactory</title><rect fill="#FFFFFF" height="58.6211" style="stroke:#696969;stroke-width:2;" width="20" x="1373.085" y="552.3008"/></g><g><title>Notifier</title><rect fill="#FFFFFF" height="60" style="stroke:#696969;stroke-width:2;" width="20" x="1572.2686" y="669.543"/></g><g><title>PromotionStrategy</title><rect fill="#FFFFFF" height="58.6211" style="stroke:#696969;stroke-width:2;" width="20" x="1796.8408" y="376.4375"/></g><rect fill="none" height="504.9688" rx="7" ry="7" style="stroke:#696969;stroke-width:2;" width="1428.166" x="538.2988" y="240.5742"/><g><title>ClientController</title><rect fill="#000000" fill-opacity="0.00000" height="690.2109" width="16" x="123.666" y="147.9531"/><line style="stroke:#696969;stroke-width:1;stroke-dasharray:10,10;" x1="130" x2="130" y1="147.9531" y2="838.1641"/></g><g><title>PromotionFacade</title><rect fill="#000000" fill-opacity="0.00000" height="690.2109" width="16" x="681.3574" y="147.9531"/><line style="stroke:#696969;stroke-width:1;stroke-dasharray:10,10;" x1="688.2988" x2="688.2988" y1="147.9531" y2="838.1641"/></g><g><title>PromotionService</title><rect fill="#000000" fill-opacity="0.00000" height="690.2109" width="16" x="1109.21" y="147.9531"/><line style="stroke:#696969;stroke-width:1;stroke-dasharray:10,10;" x1="1115.5703" x2="1115.5703" y1="147.9531" y2="838.1641"/></g><g><title>NotifierFactory</title><rect fill="#000000" fill-opacity="0.00000" height="690.2109" width="16" x="1375.085" y="147.9531"/><line style="stroke:#696969;stroke-width:1;stroke-dasharray:10,10;" x1="1382.8496" x2="1382.8496" y1="147.9531" y2="838.1641"/></g><g><title>Notifier</title><rect fill="#000000" fill-opacity="0.00000" height="690.2109" width="16" x="1574.2686" y="147.9531"/><line style="stroke:#696969;stroke-width:1;stroke-dasharray:10,10;" x1="1581.3203" x2="1581.3203" y1="147.9531" y2="838.1641"/></g><g><title>PromotionStrategy</title><rect fill="#000000" fill-opacity="0.00000" height="690.2109" width="16" x="1798.8408" y="147.9531"/><line style="stroke:#696969;stroke-width:1;stroke-dasharray:10,10;" x1="1805.2168" x2="1805.2168" y1="147.9531" y2="838.1641"/></g><g class="participant participant-head" data-participant="ClientController"><rect fill="#FF6347" height="60.9766" rx="7" ry="7" style="stroke:#454645;stroke-width:3;" width="243.332" x="10" y="84.9766"/><text fill="#FFFFFF" font-family="sans-serif" font-size="28" lengthAdjust="spacing" textLength="215.332" x="24" y="126.0469">ClientController</text></g><g class="participant participant-tail" data-participant="ClientController"><rect fill="#FF6347" height="60.9766" rx="7" ry="7" style="stroke:#454645;stroke-width:3;" width="243.332" x="10" y="836.1641"/><text fill="#FFFFFF" font-family="sans-serif" font-size="28" lengthAdjust="spacing" textLength="215.332" x="24" y="877.2344">ClientController</text></g><g class="participant participant-head" data-participant="Facade"><rect fill="#FF6347" height="60.9766" rx="7" ry="7" style="stroke:#454645;stroke-width:3;" width="262.1172" x="558.2988" y="84.9766"/><text fill="#FFFFFF" font-family="sans-serif" font-size="28" lengthAdjust="spacing" textLength="234.1172" x="572.2988" y="126.0469">PromotionFacade</text></g><g class="participant participant-tail" data-participant="Facade"><rect fill="#FF6347" height="60.9766" rx="7" ry="7" style="stroke:#454645;stroke-width:3;" width="262.1172" x="558.2988" y="836.1641"/><text fill="#FFFFFF" font-family="sans-serif" font-size="28" lengthAdjust="spacing" textLength="234.1172" x="572.2988" y="877.2344">PromotionFacade</text></g><g class="participant participant-head" data-participant="PromoService"><rect fill="#FF6347" height="60.9766" rx="7" ry="7" style="stroke:#454645;stroke-width:3;" width="263.2793" x="985.5703" y="84.9766"/><text fill="#FFFFFF" font-family="sans-serif" font-size="28" lengthAdjust="spacing" textLength="235.2793" x="999.5703" y="126.0469">PromotionService</text></g><g class="participant participant-tail" data-participant="PromoService"><rect fill="#FF6347" height="60.9766" rx="7" ry="7" style="stroke:#454645;stroke-width:3;" width="263.2793" x="985.5703" y="836.1641"/><text fill="#FFFFFF" font-family="sans-serif" font-size="28" lengthAdjust="spacing" textLength="235.2793" x="999.5703" y="877.2344">PromotionService</text></g><g class="participant participant-head" data-participant="NotifierFactory"><rect fill="#FF6347" height="60.9766" rx="7" ry="7" style="stroke:#454645;stroke-width:3;" width="228.4707" x="1268.8496" y="84.9766"/><text fill="#FFFFFF" font-family="sans-serif" font-size="28" lengthAdjust="spacing" textLength="200.4707" x="1282.8496" y="126.0469">NotifierFactory</text></g><g class="participant participant-tail" data-participant="NotifierFactory"><rect fill="#FF6347" height="60.9766" rx="7" ry="7" style="stroke:#454645;stroke-width:3;" width="228.4707" x="1268.8496" y="836.1641"/><text fill="#FFFFFF" font-family="sans-serif" font-size="28" lengthAdjust="spacing" textLength="200.4707" x="1282.8496" y="877.2344">NotifierFactory</text></g><g class="participant participant-head" data-participant="Notifier"><rect fill="#FF6347" height="60.9766" rx="7" ry="7" style="stroke:#454645;stroke-width:3;" width="129.8965" x="1517.3203" y="84.9766"/><text fill="#FFFFFF" font-family="sans-serif" font-size="28" lengthAdjust="spacing" textLength="101.8965" x="1531.3203" y="126.0469">Notifier</text></g><g class="participant participant-tail" data-participant="Notifier"><rect fill="#FF6347" height="60.9766" rx="7" ry="7" style="stroke:#454645;stroke-width:3;" width="129.8965" x="1517.3203" y="836.1641"/><text fill="#FFFFFF" font-family="sans-serif" font-size="28" lengthAdjust="spacing" textLength="101.8965" x="1531.3203" y="877.2344">Notifier</text></g><g class="participant participant-head" data-participant="Strategy"><rect fill="#FF6347" height="60.9766" rx="7" ry="7" style="stroke:#454645;stroke-width:3;" width="279.248" x="1667.2168" y="84.9766"/><text fill="#FFFFFF" font-family="sans-serif" font-size="28" lengthAdjust="spacing" textLength="251.248" x="1681.2168" y="126.0469">PromotionStrategy</text></g><g class="participant participant-tail" data-participant="Strategy"><rect fill="#FF6347" height="60.9766" rx="7" ry="7" style="stroke:#454645;stroke-width:3;" width="279.248" x="1667.2168" y="836.1641"/><text fill="#FFFFFF" font-family="sans-serif" font-size="28" lengthAdjust="spacing" textLength="251.248" x="1681.2168" y="877.2344">PromotionStrategy</text></g><g><title>PromotionFacade</title><rect fill="#FFFFFF" height="591.5898" style="stroke:#696969;stroke-width:2;" width="20" x="679.3574" y="210.5742"/></g><g><title>PromotionService</title><rect fill="#FFFFFF" height="175.8633" style="stroke:#696969;stroke-width:2;" width="20" x="1107.21" y="317.8164"/></g><g><title>NotifierFactory</title><rect fill="#FFFFFF" height="58.6211" style="stroke:#696969;stroke-width:2;" width="20" x="1373.085" y="552.3008"/></g><g><title>Notifier</title><rect fill="#FFFFFF" height="60" style="stroke:#696969;stroke-width:2;" width="20" x="1572.2686" y="669.543"/></g><g><title>PromotionStrategy</title><rect fill="#FFFFFF" height="58.6211" style="stroke:#696969;stroke-width:2;" width="20" x="1796.8408" y="376.4375"/></g><g class="message" data-participant-1="ClientController" data-participant-2="Facade"><polygon fill="#454645" points="655.3574,202.5742,675.3574,210.5742,655.3574,218.5742,663.3574,210.5742" style="stroke:#454645;stroke-width:2;"/><line style="stroke:#454645;stroke-width:2;" x1="131.666" x2="667.3574" y1="210.5742" y2="210.5742"/><text fill="#000000" font-family="sans-serif" font-size="26" lengthAdjust="spacing" textLength="509.6914" x="145.666" y="201.0898">launchCampaign(promo, users, channel)</text></g><path d="M545.2988,240.5742 L687.1924,240.5742 L687.1924,255.1953 L667.1924,275.1953 L538.2988,275.1953 L538.2988,247.5742 A7,7 0 0 1 545.2988,240.5742" fill="#EEEEEE" style="stroke:#696969;stroke-width:3;"/><rect fill="none" height="504.9688" rx="7" ry="7" style="stroke:#696969;stroke-width:2;" width="1428.166" x="538.2988" y="240.5742"/><text fill="#454645" font-family="sans-serif" font-size="26" font-weight="bold" lengthAdjust="spacing" textLength="58.8936" x="568.2988" y="267.7109">loop</text><text fill="#696969" font-family="sans-serif" font-size="22" font-weight="bold" lengthAdjust="spacing" textLength="281.3486" x="717.1924" y="265.8438">[pour chaque utilisateur]</text><g class="message" data-participant-1="Facade" data-participant-2="PromoService"><polygon fill="#454645" points="1083.21,309.8164,1103.21,317.8164,1083.21,325.8164,1091.21,317.8164" style="stroke:#454645;stroke-width:2;"/><line style="stroke:#454645;stroke-width:2;" x1="699.3574" x2="1095.21" y1="317.8164" y2="317.8164"/><text fill="#000000" font-family="sans-serif" font-size="26" lengthAdjust="spacing" textLength="369.8525" x="713.3574" y="308.332">applyPromotion(promo, user)</text></g><g class="message" data-participant-1="PromoService" data-participant-2="Strategy"><polygon fill="#454645" points="1772.8408,368.4375,1792.8408,376.4375,1772.8408,384.4375,1780.8408,376.4375" style="stroke:#454645;stroke-width:2;"/><line style="stroke:#454645;stroke-width:2;" x1="1127.21" x2="1784.8408" y1="376.4375" y2="376.4375"/><text fill="#000000" font-family="sans-serif" font-size="26" lengthAdjust="spacing" textLength="290.3926" x="1141.21" y="366.9531">generateMessage(user)</text></g><g class="message" data-participant-1="Strategy" data-participant-2="PromoService"><polygon fill="#454645" points="1149.21,427.0586,1129.21,435.0586,1149.21,443.0586,1141.21,435.0586" style="stroke:#454645;stroke-width:2;"/><line style="stroke:#454645;stroke-width:2;stroke-dasharray:4,4;" x1="1137.21" x2="1804.8408" y1="435.0586" y2="435.0586"/><text fill="#000000" font-family="sans-serif" font-size="26" lengthAdjust="spacing" textLength="110.3223" x="1161.21" y="425.5742">message</text></g><g class="message" data-participant-1="PromoService" data-participant-2="Facade"><polygon fill="#454645" points="721.3574,485.6797,701.3574,493.6797,721.3574,501.6797,713.3574,493.6797" style="stroke:#454645;stroke-width:2;"/><line style="stroke:#454645;stroke-width:2;stroke-dasharray:4,4;" x1="709.3574" x2="1115.21" y1="493.6797" y2="493.6797"/><text fill="#000000" font-family="sans-serif" font-size="26" lengthAdjust="spacing" textLength="110.3223" x="733.3574" y="484.1953">message</text></g><g class="message" data-participant-1="Facade" data-participant-2="NotifierFactory"><polygon fill="#454645" points="1349.085,544.3008,1369.085,552.3008,1349.085,560.3008,1357.085,552.3008" style="stroke:#454645;stroke-width:2;"/><line style="stroke:#454645;stroke-width:2;" x1="699.3574" x2="1361.085" y1="552.3008" y2="552.3008"/><text fill="#000000" font-family="sans-serif" font-size="26" lengthAdjust="spacing" textLength="250.0342" x="713.3574" y="542.8164">getNotifier(channel)</text></g><g class="message" data-participant-1="NotifierFactory" data-participant-2="Facade"><polygon fill="#454645" points="721.3574,602.9219,701.3574,610.9219,721.3574,618.9219,713.3574,610.9219" style="stroke:#454645;stroke-width:2;"/><line style="stroke:#454645;stroke-width:2;stroke-dasharray:4,4;" x1="709.3574" x2="1381.085" y1="610.9219" y2="610.9219"/><text fill="#000000" font-family="sans-serif" font-size="26" lengthAdjust="spacing" textLength="91.5459" x="733.3574" y="601.4375">notifier</text></g><g class="message" data-participant-1="Facade" data-participant-2="Notifier"><polygon fill="#454645" points="1548.2686,661.543,1568.2686,669.543,1548.2686,677.543,1556.2686,669.543" style="stroke:#454645;stroke-width:2;"/><line style="stroke:#454645;stroke-width:2;" x1="699.3574" x2="1560.2686" y1="669.543" y2="669.543"/><text fill="#000000" font-family="sans-serif" font-size="26" lengthAdjust="spacing" textLength="258.4385" x="713.3574" y="660.0586">send(user, message)</text></g><g class="message" data-participant-1="Facade" data-participant-2="ClientController"><polygon fill="#454645" points="153.666,794.1641,133.666,802.1641,153.666,810.1641,145.666,802.1641" style="stroke:#454645;stroke-width:2;"/><line style="stroke:#454645;stroke-width:2;stroke-dasharray:4,4;" x1="141.666" x2="687.3574" y1="802.1641" y2="802.1641"/><text fill="#000000" font-family="sans-serif" font-size="26" lengthAdjust="spacing" textLength="31.167" x="165.666" y="792.6797">ok</text></g><!--SRC=[RP9DReCm48NtFiMKJL8fkG2BRY9brLQLqWkuPagi6jlrJwGSAUV8nJeGeBPX1pFlU_Dcu2cSiKEuo2_7TM111eLGdUwttuXQ83G8hvmUEjG1catK20VUMTxgeVVXJ6U2DBfYR0EV9dfGwE5-K_TRZtZmfWUfLbdkWXJIqfmAJ8IAYs1SnP8w79Gawa2CCqgXovf7BZZDvEGrpttKSfEXUK9taQ9GZyLS_awjRudkEEIv3aHHMmSoPIuv1SS3jjTY_5YbOvMBmlvbsgy6nQCMv-7EijLRs_CxY1wTtu4uSwrHFJEA9Y_aDtACAMCiM1DThw7l1p589Jr9ecEZEOt9pbC3jrPTvuZfi6H4oh3CW0pdPMjeKMF_yeRUynQtXSsaP3EoNmRg7YnhSCdbezERhL1PwEG0vGVlOuUfk5tUjz2paizowB6P1YaDLh8GwL4tmy5sqp8h6TPi6O7_dcIw-BbgC3yf-T3-0G00]--></g></svg>