<svg xmlns="http://www.w3.org/2000/svg" xmlns:xlink="http://www.w3.org/1999/xlink" contentStyleType="text/css" data-diagram-type="CLASS" height="1148px" preserveAspectRatio="none" style="width:1554px;height:1148px;background:#FFFFFF;" version="1.1" viewBox="0 0 1554 1148" width="1554px" zoomAndPan="magnify"><title>Diagramme du Pattern Decorator</title><defs/><g><g class="title" data-source-line="2"><text fill="#000000" font-family="sans-serif" font-size="28" font-weight="bold" lengthAdjust="spacing" textLength="477.1621" x="525.0896" y="47.0703">Diagramme du Pattern Decorator</text></g><!--class Component--><g class="entity" data-entity="Component" data-source-line="4" data-uid="ent0002" id="entity_Component"><rect fill="#F1F1F1" height="128.9766" rx="7" ry="7" style="stroke:#181818;stroke-width:1;" width="247.8223" x="903.54" y="306.9766"/><ellipse cx="944.9974" cy="338.9766" fill="#B4A7E5" rx="22" ry="22" style="stroke:#181818;stroke-width:2;"/><path d="M936.8529,330.5068 L936.8529,326.1904 L951.6117,326.1904 L951.6117,330.5068 L946.681,330.5068 L946.681,346.6602 L951.6117,346.6602 L951.6117,350.9766 L936.8529,350.9766 L936.8529,346.6602 L941.7836,346.6602 L941.7836,330.5068 Z " fill="#000000"/><text fill="#000000" font-family="sans-serif" font-size="28" font-style="italic" lengthAdjust="spacing" textLength="158.3613" x="975.5435" y="349.5586">Component</text><line style="stroke:#181818;stroke-width:1;" x1="905.54" x2="1149.3623" y1="370.9766" y2="370.9766"/><line style="stroke:#181818;stroke-width:1;" x1="905.54" x2="1149.3623" y1="386.9766" y2="386.9766"/><text fill="#000000" font-family="sans-serif" font-size="28" lengthAdjust="spacing" textLength="223.8223" x="915.54" y="422.0469">operation(): void</text></g><!--class ConcreteComponent--><g class="entity" data-entity="ConcreteComponent" data-source-line="8" data-uid="ent0003" id="entity_ConcreteComponent"><rect fill="#F1F1F1" height="128.9766" rx="7" ry="7" style="stroke:#181818;stroke-width:1;" width="343.7813" x="1197.56" y="688.9366"/><ellipse cx="1227.56" cy="720.9366" fill="#ADD1B2" rx="22" ry="22" style="stroke:#181818;stroke-width:2;"/><path d="M1233.5063,732.2227 Q1232.3442,732.8204 1231.0659,733.1192 Q1229.7875,733.418 1228.3764,733.418 Q1223.3627,733.418 1220.7231,730.1143 Q1218.0834,726.8106 1218.0834,720.5684 Q1218.0834,714.3096 1220.7231,711.0059 Q1223.3627,707.7022 1228.3764,707.7022 Q1229.7875,707.7022 1231.0825,708.001 Q1232.3774,708.2998 1233.5063,708.8975 L1233.5063,714.3428 Q1232.2446,713.1807 1231.0576,712.6412 Q1229.8705,712.1016 1228.6088,712.1016 Q1225.9194,712.1016 1224.5497,714.2349 Q1223.1801,716.3682 1223.1801,720.5684 Q1223.1801,724.752 1224.5497,726.8853 Q1225.9194,729.0186 1228.6088,729.0186 Q1229.8705,729.0186 1231.0576,728.479 Q1232.2446,727.9395 1233.5063,726.7774 Z " fill="#000000"/><text fill="#000000" font-family="sans-serif" font-size="28" lengthAdjust="spacing" textLength="279.7813" x="1255.56" y="731.5186">ConcreteComponent</text><line style="stroke:#181818;stroke-width:1;" x1="1199.56" x2="1539.3413" y1="752.9366" y2="752.9366"/><line style="stroke:#181818;stroke-width:1;" x1="1199.56" x2="1539.3413" y1="768.9366" y2="768.9366"/><text fill="#000000" font-family="sans-serif" font-size="28" lengthAdjust="spacing" textLength="223.8223" x="1209.56" y="804.0069">operation(): void</text></g><!--class Decorator--><g class="entity" data-entity="Decorator" data-source-line="12" data-uid="ent0005" id="entity_Decorator"><rect fill="#F1F1F1" height="194.9297" rx="7" ry="7" style="stroke:#181818;stroke-width:1;" width="366.7949" x="202.06" y="655.9566"/><ellipse cx="309.8764" cy="687.9566" fill="#A9DCDF" rx="22" ry="22" style="stroke:#181818;stroke-width:2;"/><path d="M310.103,678.6529 L307.7954,688.7964 L312.4272,688.7964 Z M307.1147,674.1704 L313.1079,674.1704 L319.7983,698.9566 L314.9008,698.9566 L313.3735,692.8306 L306.8159,692.8306 L305.3217,698.9566 L300.4243,698.9566 Z " fill="#000000"/><text fill="#000000" font-family="sans-serif" font-size="28" font-style="italic" lengthAdjust="spacing" textLength="134.1621" x="350.8764" y="698.5386">Decorator</text><line style="stroke:#181818;stroke-width:1;" x1="204.06" x2="566.8549" y1="719.9566" y2="719.9566"/><text fill="#000000" font-family="sans-serif" font-size="28" lengthAdjust="spacing" textLength="293.043" x="214.06" y="755.0269">wrapped: Component</text><line style="stroke:#181818;stroke-width:1;" x1="204.06" x2="566.8549" y1="768.9331" y2="768.9331"/><text fill="#000000" font-family="sans-serif" font-size="28" lengthAdjust="spacing" textLength="342.7949" x="214.06" y="804.0034">Decorator(c: Component)</text><text fill="#000000" font-family="sans-serif" font-size="28" lengthAdjust="spacing" textLength="223.8223" x="214.06" y="836.98">operation(): void</text></g><g class="entity" data-entity="GMN7" data-source-line="18" data-uid="ent0008" id="entity_GMN7"><path d="M639.44,719.7966 L639.44,745.4166 L569.28,753.4166 L639.44,761.4166 L639.44,787.0387 A7,7 0 0 0 646.44,794.0387 L1120.4644,794.0387 A7,7 0 0 0 1127.4644,787.0387 L1127.4644,732.7966 L1107.4644,712.7966 L646.44,712.7966 A7,7 0 0 0 639.44,719.7966" fill="#7FFFD4" style="stroke:#454645;stroke-width:3;"/><path d="M1107.4644,712.7966 L1107.4644,729.2966 A3.5,3.5 0 0 0 1110.9644,732.7966 L1127.4644,732.7966 L1107.4644,712.7966" fill="#7FFFD4" style="stroke:#454645;stroke-width:3;"/><text fill="#454645" font-family="sans-serif" font-size="26" lengthAdjust="spacing" textLength="446.0244" x="651.44" y="747.9333">Le d&#233;corateur impl&#233;mente la m&#234;me</text><text fill="#454645" font-family="sans-serif" font-size="26" lengthAdjust="spacing" textLength="415.0098" x="651.44" y="778.5544">interface que l'objet qu'il d&#233;core.</text></g><!--class ConcreteDecoratorA--><g class="entity" data-entity="ConcreteDecoratorA" data-source-line="19" data-uid="ent0010" id="entity_ConcreteDecoratorA"><rect fill="#F1F1F1" height="161.9531" rx="7" ry="7" style="stroke:#181818;stroke-width:1;" width="338.9004" x="14" y="972.8766"/><ellipse cx="44" cy="1004.8766" fill="#ADD1B2" rx="22" ry="22" style="stroke:#181818;stroke-width:2;"/><path d="M49.9463,1016.1627 Q48.7842,1016.7604 47.5059,1017.0592 Q46.2275,1017.358 44.8164,1017.358 Q39.8027,1017.358 37.1631,1014.0543 Q34.5234,1010.7506 34.5234,1004.5084 Q34.5234,998.2496 37.1631,994.9459 Q39.8027,991.6422 44.8164,991.6422 Q46.2275,991.6422 47.5225,991.941 Q48.8174,992.2398 49.9463,992.8375 L49.9463,998.2828 Q48.6846,997.1207 47.4976,996.5812 Q46.3105,996.0416 45.0488,996.0416 Q42.3594,996.0416 40.9897,998.1749 Q39.6201,1000.3082 39.6201,1004.5084 Q39.6201,1008.692 40.9897,1010.8253 Q42.3594,1012.9586 45.0488,1012.9586 Q46.3105,1012.9586 47.4976,1012.419 Q48.6846,1011.8795 49.9463,1010.7174 Z " fill="#000000"/><text fill="#000000" font-family="sans-serif" font-size="28" lengthAdjust="spacing" textLength="274.9004" x="72" y="1015.4586">ConcreteDecoratorA</text><line style="stroke:#181818;stroke-width:1;" x1="16" x2="350.9004" y1="1036.8766" y2="1036.8766"/><line style="stroke:#181818;stroke-width:1;" x1="16" x2="350.9004" y1="1052.8766" y2="1052.8766"/><text fill="#000000" font-family="sans-serif" font-size="28" lengthAdjust="spacing" textLength="223.8223" x="26" y="1087.9469">operation(): void</text><text fill="#000000" font-family="sans-serif" font-size="28" lengthAdjust="spacing" textLength="293.0566" x="26" y="1120.9234">addedBehavior(): void</text></g><!--class ConcreteDecoratorB--><g class="entity" data-entity="ConcreteDecoratorB" data-source-line="24" data-uid="ent0012" id="entity_ConcreteDecoratorB"><rect fill="#F1F1F1" height="128.9766" rx="7" ry="7" style="stroke:#181818;stroke-width:1;" width="335.6875" x="423.6" y="989.3766"/><ellipse cx="453.6" cy="1021.3766" fill="#ADD1B2" rx="22" ry="22" style="stroke:#181818;stroke-width:2;"/><path d="M459.5463,1032.6627 Q458.3842,1033.2604 457.1059,1033.5592 Q455.8275,1033.858 454.4164,1033.858 Q449.4027,1033.858 446.7631,1030.5543 Q444.1234,1027.2506 444.1234,1021.0084 Q444.1234,1014.7496 446.7631,1011.4459 Q449.4027,1008.1422 454.4164,1008.1422 Q455.8275,1008.1422 457.1225,1008.441 Q458.4174,1008.7398 459.5463,1009.3375 L459.5463,1014.7828 Q458.2846,1013.6207 457.0976,1013.0812 Q455.9105,1012.5416 454.6488,1012.5416 Q451.9594,1012.5416 450.5897,1014.6749 Q449.2201,1016.8082 449.2201,1021.0084 Q449.2201,1025.192 450.5897,1027.3253 Q451.9594,1029.4586 454.6488,1029.4586 Q455.9105,1029.4586 457.0976,1028.919 Q458.2846,1028.3795 459.5463,1027.2174 Z " fill="#000000"/><text fill="#000000" font-family="sans-serif" font-size="28" lengthAdjust="spacing" textLength="271.6875" x="481.6" y="1031.9586">ConcreteDecoratorB</text><line style="stroke:#181818;stroke-width:1;" x1="425.6" x2="757.2875" y1="1053.3766" y2="1053.3766"/><line style="stroke:#181818;stroke-width:1;" x1="425.6" x2="757.2875" y1="1069.3766" y2="1069.3766"/><text fill="#000000" font-family="sans-serif" font-size="28" lengthAdjust="spacing" textLength="223.8223" x="435.6" y="1104.4469">operation(): void</text></g><!--class Client--><g class="entity" data-entity="Client" data-source-line="28" data-uid="ent0014" id="entity_Client"><rect fill="#F1F1F1" height="96" rx="7" ry="7" style="stroke:#181818;stroke-width:1;" width="143.0098" x="955.94" y="88.9766"/><ellipse cx="985.94" cy="120.9766" fill="#ADD1B2" rx="22" ry="22" style="stroke:#181818;stroke-width:2;"/><path d="M991.8863,132.2627 Q990.7242,132.8604 989.4459,133.1592 Q988.1675,133.458 986.7564,133.458 Q981.7427,133.458 979.1031,130.1543 Q976.4634,126.8506 976.4634,120.6084 Q976.4634,114.3496 979.1031,111.0459 Q981.7427,107.7422 986.7564,107.7422 Q988.1675,107.7422 989.4625,108.041 Q990.7574,108.3398 991.8863,108.9375 L991.8863,114.3828 Q990.6246,113.2207 989.4376,112.6812 Q988.2505,112.1416 986.9888,112.1416 Q984.2994,112.1416 982.9297,114.2749 Q981.5601,116.4082 981.5601,120.6084 Q981.5601,124.792 982.9297,126.9253 Q984.2994,129.0586 986.9888,129.0586 Q988.2505,129.0586 989.4376,128.519 Q990.6246,127.9795 991.8863,126.8174 Z " fill="#000000"/><text fill="#000000" font-family="sans-serif" font-size="28" lengthAdjust="spacing" textLength="79.0098" x="1013.94" y="131.5586">Client</text><line style="stroke:#181818;stroke-width:1;" x1="957.94" x2="1096.9498" y1="152.9766" y2="152.9766"/><line style="stroke:#181818;stroke-width:1;" x1="957.94" x2="1096.9498" y1="168.9766" y2="168.9766"/></g><!--reverse link Component to ConcreteComponent--><g class="link" data-entity-1="Component" data-entity-2="ConcreteComponent" data-source-line="9" data-uid="lnk4" id="link_Component_ConcreteComponent"><path d="M1151.1432,456.6902 C1176.7632,473.5302 1173.04,473.5766 1194.46,495.9566 C1248.14,552.0366 1287.78,632.7166 1318.46,688.3166" fill="none" id="Component-backto-ConcreteComponent" style="stroke:#454645;stroke-width:2;stroke-dasharray:14,14;"/><polygon fill="none" points="1121.06,436.9166,1144.552,466.718,1157.7345,446.6625,1121.06,436.9166" style="stroke:#454645;stroke-width:2;"/></g><!--reverse link Component to ConcreteComponent--><g class="link" data-entity-1="Component" data-entity-2="ConcreteComponent" data-source-line="38" data-uid="lnk23" id="link_Component_ConcreteComponent"><path codeLine="38" d="M1184.0134,432.3658 C1224.0334,452.7658 1233.4,463.5166 1264.46,495.9566 C1318.14,552.0366 1357.78,632.7166 1373.36,688.3166" fill="none" id="Component-backto-ConcreteComponent-1" style="stroke:#454645;stroke-width:2;stroke-dasharray:14,14;"/><polygon fill="none" points="1151.94,416.0166,1178.5636,443.0569,1189.4631,421.6747,1151.94,416.0166" style="stroke:#454645;stroke-width:2;"/></g><!--reverse link Component to Decorator--><g class="link" data-entity-1="Component" data-entity-2="Decorator" data-source-line="13" data-uid="lnk6" id="link_Component_Decorator"><path d="M867.9856,404.8533 C788.5256,423.4333 720.6,446.5366 639.46,495.9566 C570.82,537.7566 507.08,601.9566 460.62,655.5366" fill="none" id="Component-backto-Decorator" style="stroke:#454645;stroke-width:2;stroke-dasharray:14,14;"/><polygon fill="none" points="903.04,396.6566,865.2533,393.1685,870.7178,416.5381,903.04,396.6566" style="stroke:#454645;stroke-width:2;"/></g><!--link Component to Decorator--><g class="link" data-entity-1="Component" data-entity-2="Decorator" data-source-line="30" data-uid="lnk17" id="link_Component_Decorator"><path codeLine="30" d="M902.54,410.7966 C845.72,431.0366 779.32,459.4566 725.46,495.9566 C674.44,530.5166 677.1,556.8966 629.46,595.9566 C604.4,616.4966 596.4448,623.2171 568.6848,641.7371" fill="none" id="Component-to-Decorator" style="stroke:#454645;stroke-width:2;"/><polygon fill="none" points="548.72,655.0566,563.1422,655.0518,568.6848,641.7371,554.2626,641.7419,548.72,655.0566" style="stroke:#454645;stroke-width:2;"/><path d="M735.46,512.9566 L735.46,578.9566 A7,7 0 0 0 742.46,585.9566 L1196.46,585.9566 A7,7 0 0 0 1203.46,578.9566 L1203.46,525.9566 L1183.46,505.9566 L742.46,505.9566 A7,7 0 0 0 735.46,512.9566" fill="#7FFFD4" style="stroke:#454645;stroke-width:3;"/><path d="M1183.46,505.9566 L1183.46,522.4566 A3.5,3.5 0 0 0 1186.96,525.9566 L1203.46,525.9566 L1183.46,505.9566" fill="#7FFFD4" style="stroke:#454645;stroke-width:3;"/><text fill="#454645" font-family="sans-serif" font-size="26" lengthAdjust="spacing" textLength="351.7109" x="747.46" y="541.0933">Composition : le d&#233;corateur</text><text fill="#454645" font-family="sans-serif" font-size="26" lengthAdjust="spacing" textLength="426.2578" x="747.46" y="571.7144">"enveloppe" un autre Component.</text></g><!--reverse link Decorator to ConcreteDecoratorA--><g class="link" data-entity-1="Decorator" data-entity-2="ConcreteDecoratorA" data-source-line="20" data-uid="lnk11" id="link_Decorator_ConcreteDecoratorA"><path d="M273.6789,880.5899 C244.8789,919.4899 236.46,934.8966 214.3,971.9566" fill="none" id="Decorator-backto-ConcreteDecoratorA" style="stroke:#454645;stroke-width:2;"/><polygon fill="none" points="295.1,851.6566,264.0345,873.4495,283.3234,887.7302,295.1,851.6566" style="stroke:#454645;stroke-width:2;"/></g><!--reverse link Decorator to ConcreteDecoratorA--><g class="link" data-entity-1="Decorator" data-entity-2="ConcreteDecoratorA" data-source-line="36" data-uid="lnk19" id="link_Decorator_ConcreteDecoratorA"><path codeLine="36" d="M325.615,882.2312 C301.435,921.1312 289.84,934.8966 261.5,971.9566" fill="none" id="Decorator-backto-ConcreteDecoratorA-1" style="stroke:#454645;stroke-width:2;"/><polygon fill="none" points="344.62,851.6566,315.4234,875.8962,335.8065,888.5662,344.62,851.6566" style="stroke:#454645;stroke-width:2;"/></g><!--reverse link Decorator to ConcreteDecoratorB--><g class="link" data-entity-1="Decorator" data-entity-2="ConcreteDecoratorB" data-source-line="25" data-uid="lnk13" id="link_Decorator_ConcreteDecoratorB"><path d="M446.8769,882.0478 C475.4369,927.0278 493.4,948.9166 525.66,988.7766" fill="none" id="Decorator-backto-ConcreteDecoratorB" style="stroke:#454645;stroke-width:2;"/><polygon fill="none" points="427.58,851.6566,436.7465,888.4801,457.0073,875.6155,427.58,851.6566" style="stroke:#454645;stroke-width:2;"/></g><!--reverse link Decorator to ConcreteDecoratorB--><g class="link" data-entity-1="Decorator" data-entity-2="ConcreteDecoratorB" data-source-line="37" data-uid="lnk21" id="link_Decorator_ConcreteDecoratorB"><path codeLine="37" d="M498.7756,880.3997 C532.6956,925.3797 546.42,948.9166 569.56,988.7766" fill="none" id="Decorator-backto-ConcreteDecoratorB-1" style="stroke:#454645;stroke-width:2;"/><polygon fill="none" points="477.1,851.6566,489.1945,887.6249,508.3566,873.1745,477.1,851.6566" style="stroke:#454645;stroke-width:2;"/></g><!--link Client to Component--><g class="link" data-entity-1="Client" data-entity-2="Component" data-source-line="28" data-uid="lnk15" id="link_Client_Component"><path codeLine="28" d="M1027.46,185.6166 C1027.46,220.3566 1027.46,256.1366 1027.46,294.2966" fill="none" id="Client-to-Component" style="stroke:#454645;stroke-width:2;"/><polygon fill="#454645" points="1027.46,306.2966,1035.46,288.2966,1027.46,296.2966,1019.46,288.2966,1027.46,306.2966" style="stroke:#454645;stroke-width:2;"/></g><!--SRC=[ZP91KiCm34NtEeN8fkqYEK0MdQ7jaWK7OEF4eZKuSd3am0pjWSerUZ6SbabI9XtOURwb_wLdtycEAiBM55wnW1YnXCd6gArNLRpG0H-L27d63PNEAt4-0J0SfMTL4gvTLJic5lm4S3N52kDuliYnTKR30KghcYQMSUb9Q2WtLMrZD4lpjuSg6l6g5BoOzPFSD7dtggv9vuCAVTEy7CcBoJnsGkZDTYSvFaG8f-Evby8byNJi8WcjmkhqLT4J3ppUGjHdhdWXYUUPiJ_TbFqYqSzpZ_GXn7gyroG7fJNf5UrKQ-8MjmZt9gl_-XvWRKq7BjNfSaHiG8Ok3Udevip7CLh3ht2M6zDPOexs2XSan2rP5nyZmS2eWlZHdyaWpeUT6y04bnYwNmxJmyIAjqg6tv25R7-r5Nm3]--></g></svg>